<svg width="1024" height="58" viewBox="0 0 1024 58" fill="none" xmlns="http://www.w3.org/2000/svg">
<rect width="1024" height="58" fill="#272626"/>
<rect x="390" y="17" width="90" height="24" rx="12" fill="#F5400E"/>
<path d="M419.339 24.0469V34H417.295V24.0469H419.339ZM422.401 24.0469V25.6533H414.28V24.0469H422.401ZM422.643 30.377V30.2334C422.643 29.6911 422.721 29.1921 422.876 28.7363C423.031 28.276 423.256 27.8773 423.553 27.54C423.849 27.2028 424.213 26.9408 424.646 26.7539C425.079 26.5625 425.576 26.4668 426.137 26.4668C426.697 26.4668 427.196 26.5625 427.634 26.7539C428.071 26.9408 428.438 27.2028 428.734 27.54C429.035 27.8773 429.263 28.276 429.418 28.7363C429.573 29.1921 429.65 29.6911 429.65 30.2334V30.377C429.65 30.9147 429.573 31.4137 429.418 31.874C429.263 32.3298 429.035 32.7285 428.734 33.0703C428.438 33.4076 428.073 33.6696 427.64 33.8564C427.207 34.0433 426.711 34.1367 426.15 34.1367C425.59 34.1367 425.091 34.0433 424.653 33.8564C424.22 33.6696 423.853 33.4076 423.553 33.0703C423.256 32.7285 423.031 32.3298 422.876 31.874C422.721 31.4137 422.643 30.9147 422.643 30.377ZM424.612 30.2334V30.377C424.612 30.6868 424.639 30.9762 424.694 31.2451C424.749 31.514 424.835 31.751 424.954 31.9561C425.077 32.1566 425.236 32.3138 425.432 32.4277C425.628 32.5417 425.868 32.5986 426.15 32.5986C426.424 32.5986 426.658 32.5417 426.854 32.4277C427.05 32.3138 427.207 32.1566 427.326 31.9561C427.444 31.751 427.531 31.514 427.586 31.2451C427.645 30.9762 427.675 30.6868 427.675 30.377V30.2334C427.675 29.9326 427.645 29.6501 427.586 29.3857C427.531 29.1169 427.442 28.8799 427.319 28.6748C427.201 28.4652 427.043 28.3011 426.847 28.1826C426.651 28.0641 426.415 28.0049 426.137 28.0049C425.859 28.0049 425.622 28.0641 425.426 28.1826C425.234 28.3011 425.077 28.4652 424.954 28.6748C424.835 28.8799 424.749 29.1169 424.694 29.3857C424.639 29.6501 424.612 29.9326 424.612 30.2334ZM435.928 32.3867V23.5H437.911V34H436.127L435.928 32.3867ZM431.253 30.3906V30.2471C431.253 29.682 431.316 29.1693 431.444 28.709C431.572 28.2441 431.758 27.8454 432.004 27.5127C432.251 27.18 432.554 26.9225 432.914 26.7402C433.274 26.5579 433.684 26.4668 434.144 26.4668C434.577 26.4668 434.955 26.5579 435.279 26.7402C435.607 26.9225 435.885 27.1823 436.113 27.5195C436.345 27.8522 436.532 28.2464 436.673 28.7021C436.815 29.1533 436.917 29.6478 436.981 30.1855V30.5C436.917 31.015 436.815 31.4935 436.673 31.9355C436.532 32.3776 436.345 32.765 436.113 33.0977C435.885 33.4258 435.607 33.681 435.279 33.8633C434.951 34.0456 434.568 34.1367 434.13 34.1367C433.67 34.1367 433.26 34.0433 432.9 33.8564C432.545 33.6696 432.244 33.4076 431.998 33.0703C431.756 32.7331 431.572 32.3366 431.444 31.8809C431.316 31.4251 431.253 30.9284 431.253 30.3906ZM433.221 30.2471V30.3906C433.221 30.696 433.244 30.9808 433.29 31.2451C433.34 31.5094 433.42 31.7441 433.529 31.9492C433.643 32.1497 433.789 32.307 433.966 32.4209C434.149 32.5303 434.37 32.585 434.629 32.585C434.967 32.585 435.245 32.5098 435.463 32.3594C435.682 32.2044 435.849 31.9925 435.962 31.7236C436.081 31.4548 436.149 31.1449 436.168 30.7939V29.8984C436.154 29.6113 436.113 29.3538 436.045 29.126C435.981 28.8936 435.885 28.6953 435.757 28.5312C435.634 28.3672 435.479 28.2396 435.293 28.1484C435.11 28.0573 434.894 28.0117 434.643 28.0117C434.388 28.0117 434.169 28.071 433.987 28.1895C433.805 28.3034 433.657 28.4606 433.543 28.6611C433.433 28.8617 433.351 29.0986 433.296 29.3721C433.246 29.641 433.221 29.9326 433.221 30.2471ZM439.834 30.377V30.2334C439.834 29.6911 439.912 29.1921 440.067 28.7363C440.222 28.276 440.447 27.8773 440.744 27.54C441.04 27.2028 441.404 26.9408 441.837 26.7539C442.27 26.5625 442.767 26.4668 443.328 26.4668C443.888 26.4668 444.387 26.5625 444.825 26.7539C445.262 26.9408 445.629 27.2028 445.925 27.54C446.226 27.8773 446.454 28.276 446.609 28.7363C446.764 29.1921 446.841 29.6911 446.841 30.2334V30.377C446.841 30.9147 446.764 31.4137 446.609 31.874C446.454 32.3298 446.226 32.7285 445.925 33.0703C445.629 33.4076 445.264 33.6696 444.831 33.8564C444.399 34.0433 443.902 34.1367 443.341 34.1367C442.781 34.1367 442.282 34.0433 441.844 33.8564C441.411 33.6696 441.044 33.4076 440.744 33.0703C440.447 32.7285 440.222 32.3298 440.067 31.874C439.912 31.4137 439.834 30.9147 439.834 30.377ZM441.803 30.2334V30.377C441.803 30.6868 441.83 30.9762 441.885 31.2451C441.94 31.514 442.026 31.751 442.145 31.9561C442.268 32.1566 442.427 32.3138 442.623 32.4277C442.819 32.5417 443.059 32.5986 443.341 32.5986C443.615 32.5986 443.849 32.5417 444.045 32.4277C444.241 32.3138 444.399 32.1566 444.517 31.9561C444.635 31.751 444.722 31.514 444.777 31.2451C444.836 30.9762 444.866 30.6868 444.866 30.377V30.2334C444.866 29.9326 444.836 29.6501 444.777 29.3857C444.722 29.1169 444.633 28.8799 444.51 28.6748C444.392 28.4652 444.234 28.3011 444.038 28.1826C443.843 28.0641 443.606 28.0049 443.328 28.0049C443.05 28.0049 442.813 28.0641 442.617 28.1826C442.425 28.3011 442.268 28.4652 442.145 28.6748C442.026 28.8799 441.94 29.1169 441.885 29.3857C441.83 29.6501 441.803 29.9326 441.803 30.2334ZM452.75 31.9561C452.75 31.8148 452.709 31.6872 452.627 31.5732C452.545 31.4593 452.392 31.3545 452.169 31.2588C451.95 31.1585 451.634 31.0674 451.219 30.9854C450.845 30.9033 450.497 30.8008 450.173 30.6777C449.854 30.5501 449.576 30.3975 449.339 30.2197C449.107 30.042 448.924 29.8324 448.792 29.5908C448.66 29.3447 448.594 29.0645 448.594 28.75C448.594 28.4401 448.66 28.1484 448.792 27.875C448.929 27.6016 449.123 27.36 449.373 27.1504C449.628 26.9362 449.938 26.7699 450.303 26.6514C450.672 26.5283 451.087 26.4668 451.547 26.4668C452.19 26.4668 452.741 26.5693 453.201 26.7744C453.666 26.9795 454.022 27.262 454.268 27.6221C454.518 27.9775 454.644 28.3831 454.644 28.8389H452.675C452.675 28.6475 452.634 28.4766 452.552 28.3262C452.474 28.1712 452.351 28.0505 452.183 27.9639C452.019 27.8727 451.805 27.8271 451.54 27.8271C451.321 27.8271 451.132 27.8659 450.973 27.9434C450.813 28.0163 450.69 28.1165 450.604 28.2441C450.522 28.3672 450.481 28.5039 450.481 28.6543C450.481 28.7682 450.503 28.8708 450.549 28.9619C450.599 29.0485 450.679 29.1283 450.788 29.2012C450.898 29.2741 451.039 29.3424 451.212 29.4062C451.39 29.4655 451.609 29.5202 451.868 29.5703C452.402 29.6797 452.878 29.8232 453.297 30.001C453.716 30.1742 454.049 30.4111 454.295 30.7119C454.541 31.0081 454.664 31.3978 454.664 31.8809C454.664 32.209 454.591 32.5098 454.446 32.7832C454.3 33.0566 454.09 33.2959 453.817 33.501C453.543 33.7015 453.215 33.8587 452.832 33.9727C452.454 34.082 452.028 34.1367 451.554 34.1367C450.866 34.1367 450.282 34.0137 449.804 33.7676C449.33 33.5215 448.97 33.2093 448.724 32.8311C448.482 32.4482 448.362 32.0563 448.362 31.6553H450.228C450.237 31.9242 450.305 32.1406 450.433 32.3047C450.565 32.4688 450.731 32.5872 450.932 32.6602C451.137 32.7331 451.358 32.7695 451.595 32.7695C451.85 32.7695 452.062 32.7354 452.231 32.667C452.399 32.5941 452.527 32.4984 452.613 32.3799C452.705 32.2568 452.75 32.1156 452.75 31.9561Z" fill="white"/>
<path d="M522.939 24.0469V34H520.889V24.0469H522.939ZM526.904 28.2988V29.8984H522.379V28.2988H526.904ZM527.383 24.0469V25.6533H522.379V24.0469H527.383ZM531.227 26.6035V34H529.252V26.6035H531.227ZM529.129 24.6758C529.129 24.3887 529.229 24.1517 529.429 23.9648C529.63 23.778 529.899 23.6846 530.236 23.6846C530.569 23.6846 530.835 23.778 531.036 23.9648C531.241 24.1517 531.344 24.3887 531.344 24.6758C531.344 24.9629 531.241 25.1999 531.036 25.3867C530.835 25.5736 530.569 25.667 530.236 25.667C529.899 25.667 529.63 25.5736 529.429 25.3867C529.229 25.1999 529.129 24.9629 529.129 24.6758ZM535.632 23.5V34H533.657V23.5H535.632ZM539.928 28.1348V34H537.953V26.6035H539.805L539.928 28.1348ZM539.655 30.042H539.108C539.108 29.527 539.169 29.0531 539.292 28.6201C539.42 28.1826 539.605 27.8044 539.846 27.4854C540.092 27.1618 540.395 26.9111 540.755 26.7334C541.115 26.5557 541.532 26.4668 542.006 26.4668C542.334 26.4668 542.635 26.5169 542.909 26.6172C543.182 26.7129 543.417 26.8656 543.613 27.0752C543.813 27.2803 543.968 27.5492 544.078 27.8818C544.187 28.21 544.242 28.6042 544.242 29.0645V34H542.273V29.2832C542.273 28.946 542.227 28.6862 542.136 28.5039C542.045 28.3216 541.915 28.194 541.746 28.1211C541.582 28.0482 541.384 28.0117 541.152 28.0117C540.897 28.0117 540.673 28.0641 540.482 28.1689C540.295 28.2738 540.14 28.4196 540.017 28.6064C539.894 28.7887 539.803 29.0029 539.744 29.249C539.684 29.4951 539.655 29.7594 539.655 30.042ZM544.057 29.8164L543.353 29.9053C543.353 29.4222 543.412 28.9733 543.531 28.5586C543.654 28.1439 543.834 27.7793 544.071 27.4648C544.312 27.1504 544.611 26.9066 544.966 26.7334C545.322 26.5557 545.732 26.4668 546.197 26.4668C546.552 26.4668 546.876 26.5192 547.167 26.624C547.459 26.7243 547.707 26.8861 547.913 27.1094C548.122 27.3281 548.282 27.6152 548.391 27.9707C548.505 28.3262 548.562 28.7614 548.562 29.2764V34H546.586V29.2764C546.586 28.9346 546.541 28.6748 546.45 28.4971C546.363 28.3148 546.235 28.1895 546.067 28.1211C545.903 28.0482 545.707 28.0117 545.479 28.0117C545.242 28.0117 545.035 28.0596 544.857 28.1553C544.679 28.2464 544.531 28.374 544.413 28.5381C544.294 28.7021 544.205 28.8936 544.146 29.1123C544.087 29.3265 544.057 29.5612 544.057 29.8164ZM554.191 34.1367C553.616 34.1367 553.101 34.0456 552.646 33.8633C552.19 33.6764 551.803 33.4189 551.484 33.0908C551.169 32.7627 550.928 32.3822 550.759 31.9492C550.59 31.5117 550.506 31.0469 550.506 30.5547V30.2812C550.506 29.7207 550.586 29.208 550.745 28.7432C550.905 28.2783 551.133 27.875 551.429 27.5332C551.73 27.1914 552.094 26.9294 552.523 26.7471C552.951 26.5602 553.434 26.4668 553.972 26.4668C554.496 26.4668 554.961 26.5534 555.366 26.7266C555.772 26.8997 556.112 27.1458 556.385 27.4648C556.663 27.7839 556.873 28.1667 557.014 28.6133C557.155 29.0553 557.226 29.5475 557.226 30.0898V30.9102H551.347V29.5977H555.291V29.4473C555.291 29.1738 555.241 28.93 555.141 28.7158C555.045 28.4971 554.899 28.3239 554.703 28.1963C554.507 28.0687 554.257 28.0049 553.951 28.0049C553.692 28.0049 553.468 28.0618 553.281 28.1758C553.095 28.2897 552.942 28.4492 552.823 28.6543C552.71 28.8594 552.623 29.1009 552.564 29.3789C552.509 29.6523 552.482 29.9531 552.482 30.2812V30.5547C552.482 30.8509 552.523 31.1243 552.605 31.375C552.691 31.6257 552.812 31.8421 552.967 32.0244C553.126 32.2067 553.318 32.348 553.541 32.4482C553.769 32.5485 554.027 32.5986 554.314 32.5986C554.669 32.5986 555 32.5303 555.305 32.3936C555.615 32.2523 555.881 32.0404 556.105 31.7578L557.062 32.7969C556.907 33.0202 556.695 33.2344 556.426 33.4395C556.162 33.6445 555.843 33.8132 555.469 33.9453C555.095 34.0729 554.669 34.1367 554.191 34.1367ZM563.046 31.9561C563.046 31.8148 563.005 31.6872 562.923 31.5732C562.841 31.4593 562.688 31.3545 562.465 31.2588C562.246 31.1585 561.929 31.0674 561.515 30.9854C561.141 30.9033 560.792 30.8008 560.469 30.6777C560.15 30.5501 559.872 30.3975 559.635 30.2197C559.402 30.042 559.22 29.8324 559.088 29.5908C558.956 29.3447 558.89 29.0645 558.89 28.75C558.89 28.4401 558.956 28.1484 559.088 27.875C559.225 27.6016 559.418 27.36 559.669 27.1504C559.924 26.9362 560.234 26.7699 560.599 26.6514C560.968 26.5283 561.382 26.4668 561.843 26.4668C562.485 26.4668 563.037 26.5693 563.497 26.7744C563.962 26.9795 564.317 27.262 564.563 27.6221C564.814 27.9775 564.939 28.3831 564.939 28.8389H562.971C562.971 28.6475 562.93 28.4766 562.848 28.3262C562.77 28.1712 562.647 28.0505 562.479 27.9639C562.314 27.8727 562.1 27.8271 561.836 27.8271C561.617 27.8271 561.428 27.8659 561.269 27.9434C561.109 28.0163 560.986 28.1165 560.899 28.2441C560.817 28.3672 560.776 28.5039 560.776 28.6543C560.776 28.7682 560.799 28.8708 560.845 28.9619C560.895 29.0485 560.975 29.1283 561.084 29.2012C561.193 29.2741 561.335 29.3424 561.508 29.4062C561.686 29.4655 561.904 29.5202 562.164 29.5703C562.697 29.6797 563.174 29.8232 563.593 30.001C564.012 30.1742 564.345 30.4111 564.591 30.7119C564.837 31.0081 564.96 31.3978 564.96 31.8809C564.96 32.209 564.887 32.5098 564.741 32.7832C564.595 33.0566 564.386 33.2959 564.112 33.501C563.839 33.7015 563.511 33.8587 563.128 33.9727C562.75 34.082 562.324 34.1367 561.85 34.1367C561.161 34.1367 560.578 34.0137 560.1 33.7676C559.626 33.5215 559.266 33.2093 559.02 32.8311C558.778 32.4482 558.657 32.0563 558.657 31.6553H560.523C560.533 31.9242 560.601 32.1406 560.729 32.3047C560.861 32.4688 561.027 32.5872 561.228 32.6602C561.433 32.7331 561.654 32.7695 561.891 32.7695C562.146 32.7695 562.358 32.7354 562.526 32.667C562.695 32.5941 562.823 32.4984 562.909 32.3799C563 32.2568 563.046 32.1156 563.046 31.9561Z" fill="white"/>
<rect x="496.5" y="17.5" width="93" height="23" rx="11.5" stroke="white"/>
<path d="M636.07 31.3955C636.07 31.2178 636.043 31.0583 635.988 30.917C635.938 30.7712 635.842 30.639 635.701 30.5205C635.56 30.3975 635.362 30.2767 635.106 30.1582C634.851 30.0397 634.521 29.9167 634.115 29.7891C633.664 29.6432 633.236 29.4792 632.83 29.2969C632.429 29.1146 632.074 28.9027 631.764 28.6611C631.458 28.415 631.217 28.1302 631.039 27.8066C630.866 27.4831 630.779 27.1071 630.779 26.6787C630.779 26.264 630.87 25.888 631.053 25.5508C631.235 25.209 631.49 24.9173 631.818 24.6758C632.146 24.4297 632.534 24.2406 632.98 24.1084C633.432 23.9762 633.926 23.9102 634.464 23.9102C635.198 23.9102 635.838 24.0423 636.385 24.3066C636.932 24.571 637.355 24.9333 637.656 25.3936C637.962 25.8538 638.114 26.3802 638.114 26.9727H636.077C636.077 26.681 636.016 26.4258 635.893 26.207C635.774 25.9837 635.592 25.8083 635.346 25.6807C635.104 25.5531 634.799 25.4893 634.43 25.4893C634.074 25.4893 633.778 25.5439 633.541 25.6533C633.304 25.7581 633.126 25.9017 633.008 26.084C632.889 26.2617 632.83 26.4622 632.83 26.6855C632.83 26.8542 632.871 27.0068 632.953 27.1436C633.04 27.2803 633.167 27.4079 633.336 27.5264C633.505 27.6449 633.712 27.7565 633.958 27.8613C634.204 27.9661 634.489 28.0687 634.812 28.1689C635.355 28.333 635.831 28.5176 636.241 28.7227C636.656 28.9277 637.002 29.1579 637.28 29.4131C637.558 29.6683 637.768 29.9577 637.909 30.2812C638.05 30.6048 638.121 30.9717 638.121 31.3818C638.121 31.8148 638.037 32.2021 637.868 32.5439C637.7 32.8857 637.456 33.1751 637.137 33.4121C636.818 33.6491 636.437 33.8291 635.995 33.9521C635.553 34.0752 635.059 34.1367 634.512 34.1367C634.02 34.1367 633.534 34.0729 633.056 33.9453C632.577 33.8132 632.142 33.6149 631.75 33.3506C631.363 33.0863 631.053 32.749 630.82 32.3389C630.588 31.9287 630.472 31.4434 630.472 30.8828H632.529C632.529 31.1927 632.577 31.4548 632.673 31.6689C632.769 31.8831 632.903 32.0563 633.076 32.1885C633.254 32.3206 633.464 32.4163 633.705 32.4756C633.951 32.5348 634.22 32.5645 634.512 32.5645C634.867 32.5645 635.159 32.5143 635.387 32.4141C635.619 32.3138 635.79 32.1748 635.899 31.9971C636.013 31.8193 636.07 31.6188 636.07 31.3955ZM643.497 34.1367C642.923 34.1367 642.408 34.0456 641.952 33.8633C641.496 33.6764 641.109 33.4189 640.79 33.0908C640.475 32.7627 640.234 32.3822 640.065 31.9492C639.897 31.5117 639.812 31.0469 639.812 30.5547V30.2812C639.812 29.7207 639.892 29.208 640.052 28.7432C640.211 28.2783 640.439 27.875 640.735 27.5332C641.036 27.1914 641.401 26.9294 641.829 26.7471C642.257 26.5602 642.74 26.4668 643.278 26.4668C643.802 26.4668 644.267 26.5534 644.673 26.7266C645.078 26.8997 645.418 27.1458 645.691 27.4648C645.969 27.7839 646.179 28.1667 646.32 28.6133C646.461 29.0553 646.532 29.5475 646.532 30.0898V30.9102H640.653V29.5977H644.597V29.4473C644.597 29.1738 644.547 28.93 644.447 28.7158C644.351 28.4971 644.206 28.3239 644.01 28.1963C643.814 28.0687 643.563 28.0049 643.258 28.0049C642.998 28.0049 642.775 28.0618 642.588 28.1758C642.401 28.2897 642.248 28.4492 642.13 28.6543C642.016 28.8594 641.929 29.1009 641.87 29.3789C641.815 29.6523 641.788 29.9531 641.788 30.2812V30.5547C641.788 30.8509 641.829 31.1243 641.911 31.375C641.998 31.6257 642.118 31.8421 642.273 32.0244C642.433 32.2067 642.624 32.348 642.847 32.4482C643.075 32.5485 643.333 32.5986 643.62 32.5986C643.975 32.5986 644.306 32.5303 644.611 32.3936C644.921 32.2523 645.188 32.0404 645.411 31.7578L646.368 32.7969C646.213 33.0202 646.001 33.2344 645.732 33.4395C645.468 33.6445 645.149 33.8132 644.775 33.9453C644.401 34.0729 643.975 34.1367 643.497 34.1367ZM642.109 25.5986L643.449 23.4932H645.589L643.709 25.5986H642.109ZM650.322 28.2168V34H648.353V26.6035H650.206L650.322 28.2168ZM652.55 26.5557L652.516 28.3809C652.421 28.3672 652.304 28.3558 652.168 28.3467C652.035 28.333 651.915 28.3262 651.805 28.3262C651.527 28.3262 651.286 28.3626 651.081 28.4355C650.88 28.5039 650.712 28.6064 650.575 28.7432C650.443 28.8799 650.342 29.0462 650.274 29.2422C650.21 29.4382 650.174 29.6615 650.165 29.9121L649.768 29.7891C649.768 29.3105 649.816 28.8708 649.912 28.4697C650.007 28.0641 650.146 27.7109 650.329 27.4102C650.516 27.1094 650.743 26.877 651.012 26.7129C651.281 26.5488 651.589 26.4668 651.935 26.4668C652.045 26.4668 652.156 26.4759 652.27 26.4941C652.384 26.5078 652.477 26.5283 652.55 26.5557ZM656.258 26.6035V34H654.283V26.6035H656.258ZM654.16 24.6758C654.16 24.3887 654.26 24.1517 654.46 23.9648C654.661 23.778 654.93 23.6846 655.267 23.6846C655.6 23.6846 655.866 23.778 656.067 23.9648C656.272 24.1517 656.374 24.3887 656.374 24.6758C656.374 24.9629 656.272 25.1999 656.067 25.3867C655.866 25.5736 655.6 25.667 655.267 25.667C654.93 25.667 654.661 25.5736 654.46 25.3867C654.26 25.1999 654.16 24.9629 654.16 24.6758ZM661.989 34.1367C661.415 34.1367 660.9 34.0456 660.445 33.8633C659.989 33.6764 659.601 33.4189 659.282 33.0908C658.968 32.7627 658.726 32.3822 658.558 31.9492C658.389 31.5117 658.305 31.0469 658.305 30.5547V30.2812C658.305 29.7207 658.385 29.208 658.544 28.7432C658.704 28.2783 658.932 27.875 659.228 27.5332C659.529 27.1914 659.893 26.9294 660.321 26.7471C660.75 26.5602 661.233 26.4668 661.771 26.4668C662.295 26.4668 662.76 26.5534 663.165 26.7266C663.571 26.8997 663.91 27.1458 664.184 27.4648C664.462 27.7839 664.671 28.1667 664.813 28.6133C664.954 29.0553 665.025 29.5475 665.025 30.0898V30.9102H659.146V29.5977H663.09V29.4473C663.09 29.1738 663.04 28.93 662.94 28.7158C662.844 28.4971 662.698 28.3239 662.502 28.1963C662.306 28.0687 662.056 28.0049 661.75 28.0049C661.49 28.0049 661.267 28.0618 661.08 28.1758C660.893 28.2897 660.741 28.4492 660.622 28.6543C660.508 28.8594 660.422 29.1009 660.362 29.3789C660.308 29.6523 660.28 29.9531 660.28 30.2812V30.5547C660.28 30.8509 660.321 31.1243 660.404 31.375C660.49 31.6257 660.611 31.8421 660.766 32.0244C660.925 32.2067 661.117 32.348 661.34 32.4482C661.568 32.5485 661.825 32.5986 662.112 32.5986C662.468 32.5986 662.798 32.5303 663.104 32.3936C663.414 32.2523 663.68 32.0404 663.904 31.7578L664.861 32.7969C664.706 33.0202 664.494 33.2344 664.225 33.4395C663.96 33.6445 663.641 33.8132 663.268 33.9453C662.894 34.0729 662.468 34.1367 661.989 34.1367ZM670.845 31.9561C670.845 31.8148 670.804 31.6872 670.722 31.5732C670.64 31.4593 670.487 31.3545 670.264 31.2588C670.045 31.1585 669.728 31.0674 669.313 30.9854C668.94 30.9033 668.591 30.8008 668.268 30.6777C667.949 30.5501 667.671 30.3975 667.434 30.2197C667.201 30.042 667.019 29.8324 666.887 29.5908C666.755 29.3447 666.688 29.0645 666.688 28.75C666.688 28.4401 666.755 28.1484 666.887 27.875C667.023 27.6016 667.217 27.36 667.468 27.1504C667.723 26.9362 668.033 26.7699 668.397 26.6514C668.767 26.5283 669.181 26.4668 669.642 26.4668C670.284 26.4668 670.836 26.5693 671.296 26.7744C671.761 26.9795 672.116 27.262 672.362 27.6221C672.613 27.9775 672.738 28.3831 672.738 28.8389H670.77C670.77 28.6475 670.729 28.4766 670.646 28.3262C670.569 28.1712 670.446 28.0505 670.277 27.9639C670.113 27.8727 669.899 27.8271 669.635 27.8271C669.416 27.8271 669.227 27.8659 669.067 27.9434C668.908 28.0163 668.785 28.1165 668.698 28.2441C668.616 28.3672 668.575 28.5039 668.575 28.6543C668.575 28.7682 668.598 28.8708 668.644 28.9619C668.694 29.0485 668.773 29.1283 668.883 29.2012C668.992 29.2741 669.133 29.3424 669.307 29.4062C669.484 29.4655 669.703 29.5202 669.963 29.5703C670.496 29.6797 670.972 29.8232 671.392 30.001C671.811 30.1742 672.144 30.4111 672.39 30.7119C672.636 31.0081 672.759 31.3978 672.759 31.8809C672.759 32.209 672.686 32.5098 672.54 32.7832C672.394 33.0566 672.185 33.2959 671.911 33.501C671.638 33.7015 671.31 33.8587 670.927 33.9727C670.549 34.082 670.122 34.1367 669.648 34.1367C668.96 34.1367 668.377 34.0137 667.898 33.7676C667.424 33.5215 667.064 33.2093 666.818 32.8311C666.577 32.4482 666.456 32.0563 666.456 31.6553H668.322C668.331 31.9242 668.4 32.1406 668.527 32.3047C668.66 32.4688 668.826 32.5872 669.026 32.6602C669.231 32.7331 669.452 32.7695 669.689 32.7695C669.945 32.7695 670.157 32.7354 670.325 32.667C670.494 32.5941 670.621 32.4984 670.708 32.3799C670.799 32.2568 670.845 32.1156 670.845 31.9561Z" fill="white"/>
<rect x="606.5" y="17.5" width="91" height="23" rx="11.5" stroke="white"/>
<path d="M741.944 34H739.777L739.791 32.4004H741.944C742.482 32.4004 742.936 32.2796 743.305 32.0381C743.674 31.792 743.952 31.4342 744.139 30.9648C744.33 30.4954 744.426 29.9281 744.426 29.2627V28.7773C744.426 28.2669 744.371 27.818 744.262 27.4307C744.157 27.0433 744 26.7174 743.79 26.4531C743.58 26.1888 743.323 25.9906 743.018 25.8584C742.712 25.7217 742.361 25.6533 741.965 25.6533H739.736V24.0469H741.965C742.63 24.0469 743.239 24.1608 743.79 24.3887C744.346 24.612 744.827 24.9333 745.232 25.3525C745.638 25.7718 745.95 26.2731 746.169 26.8564C746.392 27.4352 746.504 28.0801 746.504 28.791V29.2627C746.504 29.9691 746.392 30.6139 746.169 31.1973C745.95 31.7806 745.638 32.2819 745.232 32.7012C744.831 33.1159 744.351 33.4372 743.79 33.665C743.234 33.8883 742.619 34 741.944 34ZM740.939 24.0469V34H738.889V24.0469H740.939ZM748.257 30.377V30.2334C748.257 29.6911 748.334 29.1921 748.489 28.7363C748.644 28.276 748.87 27.8773 749.166 27.54C749.462 27.2028 749.827 26.9408 750.26 26.7539C750.693 26.5625 751.189 26.4668 751.75 26.4668C752.31 26.4668 752.809 26.5625 753.247 26.7539C753.684 26.9408 754.051 27.2028 754.347 27.54C754.648 27.8773 754.876 28.276 755.031 28.7363C755.186 29.1921 755.263 29.6911 755.263 30.2334V30.377C755.263 30.9147 755.186 31.4137 755.031 31.874C754.876 32.3298 754.648 32.7285 754.347 33.0703C754.051 33.4076 753.687 33.6696 753.254 33.8564C752.821 34.0433 752.324 34.1367 751.763 34.1367C751.203 34.1367 750.704 34.0433 750.266 33.8564C749.833 33.6696 749.467 33.4076 749.166 33.0703C748.87 32.7285 748.644 32.3298 748.489 31.874C748.334 31.4137 748.257 30.9147 748.257 30.377ZM750.225 30.2334V30.377C750.225 30.6868 750.253 30.9762 750.307 31.2451C750.362 31.514 750.449 31.751 750.567 31.9561C750.69 32.1566 750.85 32.3138 751.046 32.4277C751.242 32.5417 751.481 32.5986 751.763 32.5986C752.037 32.5986 752.272 32.5417 752.468 32.4277C752.664 32.3138 752.821 32.1566 752.939 31.9561C753.058 31.751 753.144 31.514 753.199 31.2451C753.258 30.9762 753.288 30.6868 753.288 30.377V30.2334C753.288 29.9326 753.258 29.6501 753.199 29.3857C753.144 29.1169 753.055 28.8799 752.932 28.6748C752.814 28.4652 752.657 28.3011 752.461 28.1826C752.265 28.0641 752.028 28.0049 751.75 28.0049C751.472 28.0049 751.235 28.0641 751.039 28.1826C750.847 28.3011 750.69 28.4652 750.567 28.6748C750.449 28.8799 750.362 29.1169 750.307 29.3857C750.253 29.6501 750.225 29.9326 750.225 30.2334ZM760.229 32.5986C760.471 32.5986 760.685 32.5531 760.872 32.4619C761.059 32.3662 761.204 32.234 761.309 32.0654C761.419 31.8923 761.476 31.6895 761.48 31.457H763.333C763.328 31.9766 763.189 32.4391 762.916 32.8447C762.642 33.2458 762.275 33.5625 761.815 33.7949C761.355 34.0228 760.84 34.1367 760.27 34.1367C759.696 34.1367 759.195 34.041 758.766 33.8496C758.342 33.6582 757.989 33.3939 757.707 33.0566C757.424 32.7148 757.212 32.3184 757.071 31.8672C756.93 31.4115 756.859 30.9238 756.859 30.4043V30.2061C756.859 29.682 756.93 29.1943 757.071 28.7432C757.212 28.2874 757.424 27.891 757.707 27.5537C757.989 27.2119 758.342 26.9453 758.766 26.7539C759.19 26.5625 759.687 26.4668 760.256 26.4668C760.863 26.4668 761.393 26.583 761.849 26.8154C762.31 27.0479 762.67 27.3805 762.929 27.8135C763.194 28.2419 763.328 28.75 763.333 29.3379H761.48C761.476 29.0918 761.423 28.8685 761.323 28.668C761.227 28.4674 761.086 28.3079 760.899 28.1895C760.717 28.0664 760.491 28.0049 760.222 28.0049C759.935 28.0049 759.7 28.0664 759.518 28.1895C759.336 28.3079 759.195 28.472 759.094 28.6816C758.994 28.8867 758.923 29.1214 758.882 29.3857C758.846 29.6455 758.828 29.9189 758.828 30.2061V30.4043C758.828 30.6914 758.846 30.9671 758.882 31.2314C758.919 31.4958 758.987 31.7305 759.087 31.9355C759.192 32.1406 759.336 32.3024 759.518 32.4209C759.7 32.5394 759.937 32.5986 760.229 32.5986ZM769.549 32.2295V26.6035H771.518V34H769.665L769.549 32.2295ZM769.768 30.7119L770.349 30.6982C770.349 31.1904 770.292 31.6484 770.178 32.0723C770.064 32.4915 769.893 32.8561 769.665 33.166C769.438 33.4714 769.15 33.7106 768.804 33.8838C768.458 34.0524 768.05 34.1367 767.58 34.1367C767.22 34.1367 766.888 34.0866 766.582 33.9863C766.282 33.8815 766.022 33.7197 765.803 33.501C765.589 33.2777 765.42 32.9928 765.297 32.6465C765.179 32.2956 765.12 31.874 765.12 31.3818V26.6035H767.088V31.3955C767.088 31.6143 767.113 31.7988 767.163 31.9492C767.218 32.0996 767.293 32.2227 767.389 32.3184C767.485 32.4141 767.596 32.4824 767.724 32.5234C767.856 32.5645 768.002 32.585 768.162 32.585C768.567 32.585 768.886 32.5029 769.119 32.3389C769.356 32.1748 769.522 31.9515 769.618 31.6689C769.718 31.3818 769.768 31.0628 769.768 30.7119ZM775.691 28.1348V34H773.715V26.6035H775.568L775.691 28.1348ZM775.417 30.042H774.87C774.87 29.527 774.932 29.0531 775.055 28.6201C775.182 28.1826 775.367 27.8044 775.609 27.4854C775.855 27.1618 776.158 26.9111 776.518 26.7334C776.878 26.5557 777.295 26.4668 777.769 26.4668C778.097 26.4668 778.398 26.5169 778.671 26.6172C778.945 26.7129 779.179 26.8656 779.375 27.0752C779.576 27.2803 779.731 27.5492 779.84 27.8818C779.949 28.21 780.004 28.6042 780.004 29.0645V34H778.035V29.2832C778.035 28.946 777.99 28.6862 777.899 28.5039C777.807 28.3216 777.678 28.194 777.509 28.1211C777.345 28.0482 777.147 28.0117 776.914 28.0117C776.659 28.0117 776.436 28.0641 776.244 28.1689C776.057 28.2738 775.903 28.4196 775.779 28.6064C775.656 28.7887 775.565 29.0029 775.506 29.249C775.447 29.4951 775.417 29.7594 775.417 30.042ZM779.82 29.8164L779.115 29.9053C779.115 29.4222 779.175 28.9733 779.293 28.5586C779.416 28.1439 779.596 27.7793 779.833 27.4648C780.075 27.1504 780.373 26.9066 780.729 26.7334C781.084 26.5557 781.494 26.4668 781.959 26.4668C782.315 26.4668 782.638 26.5192 782.93 26.624C783.222 26.7243 783.47 26.8861 783.675 27.1094C783.885 27.3281 784.044 27.6152 784.154 27.9707C784.267 28.3262 784.324 28.7614 784.324 29.2764V34H782.349V29.2764C782.349 28.9346 782.303 28.6748 782.212 28.4971C782.126 28.3148 781.998 28.1895 781.829 28.1211C781.665 28.0482 781.469 28.0117 781.241 28.0117C781.004 28.0117 780.797 28.0596 780.619 28.1553C780.442 28.2464 780.293 28.374 780.175 28.5381C780.057 28.7021 779.968 28.8936 779.908 29.1123C779.849 29.3265 779.82 29.5612 779.82 29.8164ZM789.953 34.1367C789.379 34.1367 788.864 34.0456 788.408 33.8633C787.952 33.6764 787.565 33.4189 787.246 33.0908C786.932 32.7627 786.69 32.3822 786.521 31.9492C786.353 31.5117 786.269 31.0469 786.269 30.5547V30.2812C786.269 29.7207 786.348 29.208 786.508 28.7432C786.667 28.2783 786.895 27.875 787.191 27.5332C787.492 27.1914 787.857 26.9294 788.285 26.7471C788.714 26.5602 789.197 26.4668 789.734 26.4668C790.258 26.4668 790.723 26.5534 791.129 26.7266C791.535 26.8997 791.874 27.1458 792.147 27.4648C792.425 27.7839 792.635 28.1667 792.776 28.6133C792.918 29.0553 792.988 29.5475 792.988 30.0898V30.9102H787.109V29.5977H791.054V29.4473C791.054 29.1738 791.004 28.93 790.903 28.7158C790.808 28.4971 790.662 28.3239 790.466 28.1963C790.27 28.0687 790.019 28.0049 789.714 28.0049C789.454 28.0049 789.231 28.0618 789.044 28.1758C788.857 28.2897 788.704 28.4492 788.586 28.6543C788.472 28.8594 788.385 29.1009 788.326 29.3789C788.271 29.6523 788.244 29.9531 788.244 30.2812V30.5547C788.244 30.8509 788.285 31.1243 788.367 31.375C788.454 31.6257 788.575 31.8421 788.729 32.0244C788.889 32.2067 789.08 32.348 789.304 32.4482C789.532 32.5485 789.789 32.5986 790.076 32.5986C790.432 32.5986 790.762 32.5303 791.067 32.3936C791.377 32.2523 791.644 32.0404 791.867 31.7578L792.824 32.7969C792.669 33.0202 792.457 33.2344 792.188 33.4395C791.924 33.6445 791.605 33.8132 791.231 33.9453C790.858 34.0729 790.432 34.1367 789.953 34.1367ZM796.737 28.1826V34H794.768V26.6035H796.614L796.737 28.1826ZM796.45 30.042H795.917C795.917 29.4951 795.987 29.0029 796.129 28.5654C796.27 28.1234 796.468 27.7474 796.723 27.4375C796.979 27.123 797.282 26.8838 797.633 26.7197C797.988 26.5511 798.385 26.4668 798.822 26.4668C799.168 26.4668 799.485 26.5169 799.772 26.6172C800.059 26.7174 800.305 26.877 800.511 27.0957C800.72 27.3145 800.88 27.6038 800.989 27.9639C801.103 28.3239 801.16 28.7637 801.16 29.2832V34H799.178V29.2764C799.178 28.9482 799.132 28.693 799.041 28.5107C798.95 28.3285 798.815 28.2008 798.638 28.1279C798.464 28.0505 798.25 28.0117 797.995 28.0117C797.731 28.0117 797.5 28.0641 797.304 28.1689C797.113 28.2738 796.954 28.4196 796.826 28.6064C796.703 28.7887 796.61 29.0029 796.546 29.249C796.482 29.4951 796.45 29.7594 796.45 30.042ZM806.98 26.6035V27.998H802.673V26.6035H806.98ZM803.74 24.7783H805.709V31.7715C805.709 31.9857 805.736 32.1497 805.791 32.2637C805.85 32.3776 805.936 32.4574 806.05 32.5029C806.164 32.5439 806.308 32.5645 806.481 32.5645C806.604 32.5645 806.713 32.5599 806.809 32.5508C806.909 32.5371 806.994 32.5234 807.062 32.5098L807.069 33.959C806.9 34.0137 806.718 34.057 806.522 34.0889C806.326 34.1208 806.11 34.1367 805.873 34.1367C805.44 34.1367 805.061 34.0661 804.738 33.9248C804.419 33.779 804.173 33.5465 804 33.2275C803.826 32.9085 803.74 32.4893 803.74 31.9697V24.7783ZM812.793 32.332V29.0371C812.793 28.8001 812.755 28.5973 812.677 28.4287C812.6 28.2555 812.479 28.1211 812.315 28.0254C812.155 27.9297 811.948 27.8818 811.693 27.8818C811.474 27.8818 811.285 27.9206 811.125 27.998C810.966 28.071 810.843 28.1781 810.756 28.3193C810.67 28.4561 810.626 28.6178 810.626 28.8047H808.658C808.658 28.4902 808.731 28.1917 808.876 27.9092C809.022 27.6266 809.234 27.3783 809.512 27.1641C809.79 26.9453 810.121 26.7744 810.503 26.6514C810.891 26.5283 811.324 26.4668 811.802 26.4668C812.376 26.4668 812.887 26.5625 813.333 26.7539C813.78 26.9453 814.131 27.2324 814.386 27.6152C814.646 27.998 814.776 28.4766 814.776 29.0508V32.2158C814.776 32.6214 814.801 32.9541 814.851 33.2139C814.901 33.4691 814.974 33.6924 815.07 33.8838V34H813.08C812.985 33.7995 812.912 33.5488 812.862 33.248C812.816 32.9427 812.793 32.6374 812.793 32.332ZM813.053 29.4951L813.067 30.6094H811.966C811.706 30.6094 811.481 30.639 811.289 30.6982C811.098 30.7575 810.941 30.8418 810.818 30.9512C810.695 31.056 810.604 31.179 810.544 31.3203C810.49 31.4616 810.462 31.6165 810.462 31.7852C810.462 31.9538 810.501 32.1064 810.579 32.2432C810.656 32.3753 810.768 32.4801 810.913 32.5576C811.059 32.6305 811.23 32.667 811.426 32.667C811.722 32.667 811.98 32.6077 812.199 32.4893C812.417 32.3708 812.586 32.2249 812.704 32.0518C812.828 31.8786 812.891 31.7145 812.896 31.5596L813.415 32.3936C813.343 32.5804 813.242 32.7741 813.115 32.9746C812.992 33.1751 812.834 33.3643 812.643 33.542C812.452 33.7152 812.221 33.8587 811.953 33.9727C811.684 34.082 811.365 34.1367 810.996 34.1367C810.526 34.1367 810.1 34.0433 809.717 33.8564C809.339 33.665 809.038 33.403 808.815 33.0703C808.596 32.7331 808.487 32.3503 808.487 31.9219C808.487 31.5345 808.56 31.1904 808.705 30.8896C808.851 30.5889 809.065 30.3359 809.348 30.1309C809.635 29.9212 809.993 29.764 810.421 29.6592C810.85 29.5498 811.346 29.4951 811.912 29.4951H813.053ZM810.859 25.6055L812.199 23.5H814.338L812.458 25.6055H810.859ZM818.962 28.2168V34H816.993V26.6035H818.846L818.962 28.2168ZM821.191 26.5557L821.156 28.3809C821.061 28.3672 820.945 28.3558 820.808 28.3467C820.676 28.333 820.555 28.3262 820.446 28.3262C820.168 28.3262 819.926 28.3626 819.721 28.4355C819.52 28.5039 819.352 28.6064 819.215 28.7432C819.083 28.8799 818.983 29.0462 818.914 29.2422C818.85 29.4382 818.814 29.6615 818.805 29.9121L818.408 29.7891C818.408 29.3105 818.456 28.8708 818.552 28.4697C818.648 28.0641 818.787 27.7109 818.969 27.4102C819.156 27.1094 819.384 26.877 819.653 26.7129C819.921 26.5488 820.229 26.4668 820.575 26.4668C820.685 26.4668 820.796 26.4759 820.91 26.4941C821.024 26.5078 821.118 26.5283 821.191 26.5557ZM824.898 26.6035V34H822.923V26.6035H824.898ZM822.8 24.6758C822.8 24.3887 822.9 24.1517 823.101 23.9648C823.301 23.778 823.57 23.6846 823.907 23.6846C824.24 23.6846 824.507 23.778 824.707 23.9648C824.912 24.1517 825.015 24.3887 825.015 24.6758C825.015 24.9629 824.912 25.1999 824.707 25.3867C824.507 25.5736 824.24 25.667 823.907 25.667C823.57 25.667 823.301 25.5736 823.101 25.3867C822.9 25.1999 822.8 24.9629 822.8 24.6758ZM826.911 30.377V30.2334C826.911 29.6911 826.988 29.1921 827.143 28.7363C827.298 28.276 827.524 27.8773 827.82 27.54C828.116 27.2028 828.481 26.9408 828.914 26.7539C829.347 26.5625 829.844 26.4668 830.404 26.4668C830.965 26.4668 831.464 26.5625 831.901 26.7539C832.339 26.9408 832.706 27.2028 833.002 27.54C833.303 27.8773 833.53 28.276 833.685 28.7363C833.84 29.1921 833.918 29.6911 833.918 30.2334V30.377C833.918 30.9147 833.84 31.4137 833.685 31.874C833.53 32.3298 833.303 32.7285 833.002 33.0703C832.706 33.4076 832.341 33.6696 831.908 33.8564C831.475 34.0433 830.978 34.1367 830.418 34.1367C829.857 34.1367 829.358 34.0433 828.921 33.8564C828.488 33.6696 828.121 33.4076 827.82 33.0703C827.524 32.7285 827.298 32.3298 827.143 31.874C826.988 31.4137 826.911 30.9147 826.911 30.377ZM828.88 30.2334V30.377C828.88 30.6868 828.907 30.9762 828.962 31.2451C829.016 31.514 829.103 31.751 829.221 31.9561C829.345 32.1566 829.504 32.3138 829.7 32.4277C829.896 32.5417 830.135 32.5986 830.418 32.5986C830.691 32.5986 830.926 32.5417 831.122 32.4277C831.318 32.3138 831.475 32.1566 831.594 31.9561C831.712 31.751 831.799 31.514 831.853 31.2451C831.913 30.9762 831.942 30.6868 831.942 30.377V30.2334C831.942 29.9326 831.913 29.6501 831.853 29.3857C831.799 29.1169 831.71 28.8799 831.587 28.6748C831.468 28.4652 831.311 28.3011 831.115 28.1826C830.919 28.0641 830.682 28.0049 830.404 28.0049C830.126 28.0049 829.889 28.0641 829.693 28.1826C829.502 28.3011 829.345 28.4652 829.221 28.6748C829.103 28.8799 829.016 29.1169 828.962 29.3857C828.907 29.6501 828.88 29.9326 828.88 30.2334ZM839.827 31.9561C839.827 31.8148 839.786 31.6872 839.704 31.5732C839.622 31.4593 839.469 31.3545 839.246 31.2588C839.027 31.1585 838.71 31.0674 838.296 30.9854C837.922 30.9033 837.573 30.8008 837.25 30.6777C836.931 30.5501 836.653 30.3975 836.416 30.2197C836.183 30.042 836.001 29.8324 835.869 29.5908C835.737 29.3447 835.671 29.0645 835.671 28.75C835.671 28.4401 835.737 28.1484 835.869 27.875C836.005 27.6016 836.199 27.36 836.45 27.1504C836.705 26.9362 837.015 26.7699 837.379 26.6514C837.749 26.5283 838.163 26.4668 838.624 26.4668C839.266 26.4668 839.818 26.5693 840.278 26.7744C840.743 26.9795 841.098 27.262 841.344 27.6221C841.595 27.9775 841.72 28.3831 841.72 28.8389H839.752C839.752 28.6475 839.711 28.4766 839.629 28.3262C839.551 28.1712 839.428 28.0505 839.259 27.9639C839.095 27.8727 838.881 27.8271 838.617 27.8271C838.398 27.8271 838.209 27.8659 838.049 27.9434C837.89 28.0163 837.767 28.1165 837.68 28.2441C837.598 28.3672 837.557 28.5039 837.557 28.6543C837.557 28.7682 837.58 28.8708 837.626 28.9619C837.676 29.0485 837.755 29.1283 837.865 29.2012C837.974 29.2741 838.115 29.3424 838.289 29.4062C838.466 29.4655 838.685 29.5202 838.945 29.5703C839.478 29.6797 839.954 29.8232 840.374 30.001C840.793 30.1742 841.126 30.4111 841.372 30.7119C841.618 31.0081 841.741 31.3978 841.741 31.8809C841.741 32.209 841.668 32.5098 841.522 32.7832C841.376 33.0566 841.167 33.2959 840.893 33.501C840.62 33.7015 840.292 33.8587 839.909 33.9727C839.531 34.082 839.104 34.1367 838.63 34.1367C837.942 34.1367 837.359 34.0137 836.88 33.7676C836.407 33.5215 836.046 33.2093 835.8 32.8311C835.559 32.4482 835.438 32.0563 835.438 31.6553H837.304C837.313 31.9242 837.382 32.1406 837.509 32.3047C837.642 32.4688 837.808 32.5872 838.008 32.6602C838.213 32.7331 838.435 32.7695 838.671 32.7695C838.927 32.7695 839.139 32.7354 839.307 32.667C839.476 32.5941 839.603 32.4984 839.69 32.3799C839.781 32.2568 839.827 32.1156 839.827 31.9561Z" fill="white"/>
<rect x="714.5" y="17.5" width="152" height="23" rx="11.5" stroke="white"/>
<path d="M908.825 24.0469H910.562L913.118 31.3545L915.675 24.0469H917.411L913.815 34H912.421L908.825 24.0469ZM907.889 24.0469H909.618L909.933 31.1699V34H907.889V24.0469ZM916.618 24.0469H918.354V34H916.304V31.1699L916.618 24.0469ZM925.104 32.2295V26.6035H927.073V34H925.221L925.104 32.2295ZM925.323 30.7119L925.904 30.6982C925.904 31.1904 925.847 31.6484 925.733 32.0723C925.619 32.4915 925.448 32.8561 925.221 33.166C924.993 33.4714 924.706 33.7106 924.359 33.8838C924.013 34.0524 923.605 34.1367 923.136 34.1367C922.776 34.1367 922.443 34.0866 922.137 33.9863C921.837 33.8815 921.577 33.7197 921.358 33.501C921.144 33.2777 920.975 32.9928 920.852 32.6465C920.734 32.2956 920.675 31.874 920.675 31.3818V26.6035H922.643V31.3955C922.643 31.6143 922.668 31.7988 922.719 31.9492C922.773 32.0996 922.848 32.2227 922.944 32.3184C923.04 32.4141 923.151 32.4824 923.279 32.5234C923.411 32.5645 923.557 32.585 923.717 32.585C924.122 32.585 924.441 32.5029 924.674 32.3389C924.911 32.1748 925.077 31.9515 925.173 31.6689C925.273 31.3818 925.323 31.0628 925.323 30.7119ZM922.944 25.6055L924.284 23.5H926.424L924.544 25.6055H922.944ZM933.276 31.9561C933.276 31.8148 933.235 31.6872 933.153 31.5732C933.071 31.4593 932.918 31.3545 932.695 31.2588C932.476 31.1585 932.159 31.0674 931.745 30.9854C931.371 30.9033 931.022 30.8008 930.699 30.6777C930.38 30.5501 930.102 30.3975 929.865 30.2197C929.632 30.042 929.45 29.8324 929.318 29.5908C929.186 29.3447 929.12 29.0645 929.12 28.75C929.12 28.4401 929.186 28.1484 929.318 27.875C929.455 27.6016 929.648 27.36 929.899 27.1504C930.154 26.9362 930.464 26.7699 930.829 26.6514C931.198 26.5283 931.613 26.4668 932.073 26.4668C932.715 26.4668 933.267 26.5693 933.727 26.7744C934.192 26.9795 934.547 27.262 934.794 27.6221C935.044 27.9775 935.17 28.3831 935.17 28.8389H933.201C933.201 28.6475 933.16 28.4766 933.078 28.3262C933 28.1712 932.877 28.0505 932.709 27.9639C932.545 27.8727 932.33 27.8271 932.066 27.8271C931.847 27.8271 931.658 27.8659 931.499 27.9434C931.339 28.0163 931.216 28.1165 931.129 28.2441C931.047 28.3672 931.006 28.5039 931.006 28.6543C931.006 28.7682 931.029 28.8708 931.075 28.9619C931.125 29.0485 931.205 29.1283 931.314 29.2012C931.423 29.2741 931.565 29.3424 931.738 29.4062C931.916 29.4655 932.134 29.5202 932.394 29.5703C932.927 29.6797 933.404 29.8232 933.823 30.001C934.242 30.1742 934.575 30.4111 934.821 30.7119C935.067 31.0081 935.19 31.3978 935.19 31.8809C935.19 32.209 935.117 32.5098 934.971 32.7832C934.825 33.0566 934.616 33.2959 934.342 33.501C934.069 33.7015 933.741 33.8587 933.358 33.9727C932.98 34.082 932.554 34.1367 932.08 34.1367C931.392 34.1367 930.808 34.0137 930.33 33.7676C929.856 33.5215 929.496 33.2093 929.25 32.8311C929.008 32.4482 928.887 32.0563 928.887 31.6553H930.754C930.763 31.9242 930.831 32.1406 930.959 32.3047C931.091 32.4688 931.257 32.5872 931.458 32.6602C931.663 32.7331 931.884 32.7695 932.121 32.7695C932.376 32.7695 932.588 32.7354 932.756 32.667C932.925 32.5941 933.053 32.4984 933.139 32.3799C933.23 32.2568 933.276 32.1156 933.276 31.9561ZM939.246 26.6035V34H937.271V26.6035H939.246ZM937.148 24.6758C937.148 24.3887 937.248 24.1517 937.449 23.9648C937.649 23.778 937.918 23.6846 938.255 23.6846C938.588 23.6846 938.855 23.778 939.055 23.9648C939.26 24.1517 939.363 24.3887 939.363 24.6758C939.363 24.9629 939.26 25.1999 939.055 25.3867C938.855 25.5736 938.588 25.667 938.255 25.667C937.918 25.667 937.649 25.5736 937.449 25.3867C937.248 25.1999 937.148 24.9629 937.148 24.6758ZM944.629 32.5986C944.871 32.5986 945.085 32.5531 945.272 32.4619C945.459 32.3662 945.604 32.234 945.709 32.0654C945.819 31.8923 945.876 31.6895 945.88 31.457H947.733C947.728 31.9766 947.589 32.4391 947.316 32.8447C947.042 33.2458 946.675 33.5625 946.215 33.7949C945.755 34.0228 945.24 34.1367 944.67 34.1367C944.096 34.1367 943.595 34.041 943.166 33.8496C942.742 33.6582 942.389 33.3939 942.107 33.0566C941.824 32.7148 941.612 32.3184 941.471 31.8672C941.33 31.4115 941.259 30.9238 941.259 30.4043V30.2061C941.259 29.682 941.33 29.1943 941.471 28.7432C941.612 28.2874 941.824 27.891 942.107 27.5537C942.389 27.2119 942.742 26.9453 943.166 26.7539C943.59 26.5625 944.087 26.4668 944.656 26.4668C945.263 26.4668 945.793 26.583 946.249 26.8154C946.71 27.0479 947.07 27.3805 947.329 27.8135C947.594 28.2419 947.728 28.75 947.733 29.3379H945.88C945.876 29.0918 945.823 28.8685 945.723 28.668C945.627 28.4674 945.486 28.3079 945.299 28.1895C945.117 28.0664 944.891 28.0049 944.622 28.0049C944.335 28.0049 944.1 28.0664 943.918 28.1895C943.736 28.3079 943.595 28.472 943.494 28.6816C943.394 28.8867 943.323 29.1214 943.282 29.3857C943.246 29.6455 943.228 29.9189 943.228 30.2061V30.4043C943.228 30.6914 943.246 30.9671 943.282 31.2314C943.319 31.4958 943.387 31.7305 943.487 31.9355C943.592 32.1406 943.736 32.3024 943.918 32.4209C944.1 32.5394 944.337 32.5986 944.629 32.5986ZM953.566 32.332V29.0371C953.566 28.8001 953.528 28.5973 953.45 28.4287C953.373 28.2555 953.252 28.1211 953.088 28.0254C952.928 27.9297 952.721 27.8818 952.466 27.8818C952.247 27.8818 952.058 27.9206 951.898 27.998C951.739 28.071 951.616 28.1781 951.529 28.3193C951.443 28.4561 951.399 28.6178 951.399 28.8047H949.431C949.431 28.4902 949.504 28.1917 949.649 27.9092C949.795 27.6266 950.007 27.3783 950.285 27.1641C950.563 26.9453 950.894 26.7744 951.276 26.6514C951.664 26.5283 952.097 26.4668 952.575 26.4668C953.149 26.4668 953.66 26.5625 954.106 26.7539C954.553 26.9453 954.904 27.2324 955.159 27.6152C955.419 27.998 955.549 28.4766 955.549 29.0508V32.2158C955.549 32.6214 955.574 32.9541 955.624 33.2139C955.674 33.4691 955.747 33.6924 955.843 33.8838V34H953.854C953.758 33.7995 953.685 33.5488 953.635 33.248C953.589 32.9427 953.566 32.6374 953.566 32.332ZM953.826 29.4951L953.84 30.6094H952.739C952.479 30.6094 952.254 30.639 952.062 30.6982C951.871 30.7575 951.714 30.8418 951.591 30.9512C951.468 31.056 951.377 31.179 951.317 31.3203C951.263 31.4616 951.235 31.6165 951.235 31.7852C951.235 31.9538 951.274 32.1064 951.352 32.2432C951.429 32.3753 951.541 32.4801 951.687 32.5576C951.832 32.6305 952.003 32.667 952.199 32.667C952.495 32.667 952.753 32.6077 952.972 32.4893C953.19 32.3708 953.359 32.2249 953.478 32.0518C953.601 31.8786 953.664 31.7145 953.669 31.5596L954.188 32.3936C954.116 32.5804 954.015 32.7741 953.888 32.9746C953.765 33.1751 953.607 33.3643 953.416 33.542C953.225 33.7152 952.994 33.8587 952.726 33.9727C952.457 34.082 952.138 34.1367 951.769 34.1367C951.299 34.1367 950.873 34.0433 950.49 33.8564C950.112 33.665 949.811 33.403 949.588 33.0703C949.369 32.7331 949.26 32.3503 949.26 31.9219C949.26 31.5345 949.333 31.1904 949.479 30.8896C949.624 30.5889 949.839 30.3359 950.121 30.1309C950.408 29.9212 950.766 29.764 951.194 29.6592C951.623 29.5498 952.119 29.4951 952.685 29.4951H953.826ZM961.765 31.9561C961.765 31.8148 961.724 31.6872 961.642 31.5732C961.56 31.4593 961.408 31.3545 961.184 31.2588C960.966 31.1585 960.649 31.0674 960.234 30.9854C959.86 30.9033 959.512 30.8008 959.188 30.6777C958.869 30.5501 958.591 30.3975 958.354 30.2197C958.122 30.042 957.94 29.8324 957.807 29.5908C957.675 29.3447 957.609 29.0645 957.609 28.75C957.609 28.4401 957.675 28.1484 957.807 27.875C957.944 27.6016 958.138 27.36 958.388 27.1504C958.644 26.9362 958.954 26.7699 959.318 26.6514C959.687 26.5283 960.102 26.4668 960.562 26.4668C961.205 26.4668 961.756 26.5693 962.217 26.7744C962.681 26.9795 963.037 27.262 963.283 27.6221C963.534 27.9775 963.659 28.3831 963.659 28.8389H961.69C961.69 28.6475 961.649 28.4766 961.567 28.3262C961.49 28.1712 961.367 28.0505 961.198 27.9639C961.034 27.8727 960.82 27.8271 960.555 27.8271C960.337 27.8271 960.148 27.8659 959.988 27.9434C959.829 28.0163 959.706 28.1165 959.619 28.2441C959.537 28.3672 959.496 28.5039 959.496 28.6543C959.496 28.7682 959.519 28.8708 959.564 28.9619C959.614 29.0485 959.694 29.1283 959.804 29.2012C959.913 29.2741 960.054 29.3424 960.227 29.4062C960.405 29.4655 960.624 29.5202 960.884 29.5703C961.417 29.6797 961.893 29.8232 962.312 30.001C962.732 30.1742 963.064 30.4111 963.31 30.7119C963.556 31.0081 963.679 31.3978 963.679 31.8809C963.679 32.209 963.607 32.5098 963.461 32.7832C963.315 33.0566 963.105 33.2959 962.832 33.501C962.558 33.7015 962.23 33.8587 961.847 33.9727C961.469 34.082 961.043 34.1367 960.569 34.1367C959.881 34.1367 959.298 34.0137 958.819 33.7676C958.345 33.5215 957.985 33.2093 957.739 32.8311C957.498 32.4482 957.377 32.0563 957.377 31.6553H959.243C959.252 31.9242 959.32 32.1406 959.448 32.3047C959.58 32.4688 959.747 32.5872 959.947 32.6602C960.152 32.7331 960.373 32.7695 960.61 32.7695C960.865 32.7695 961.077 32.7354 961.246 32.667C961.415 32.5941 961.542 32.4984 961.629 32.3799C961.72 32.2568 961.765 32.1156 961.765 31.9561Z" fill="white"/>
<rect x="883.5" y="17.5" width="105" height="23" rx="11.5" stroke="white"/>
<path d="M42.1289 19.9375H45.1055L49.4883 32.4648L53.8711 19.9375H56.8477L50.6836 37H48.293L42.1289 19.9375ZM40.5234 19.9375H43.4883L44.0273 32.1484V37H40.5234V19.9375ZM55.4883 19.9375H58.4648V37H54.9492V32.1484L55.4883 19.9375ZM64.9805 24.3203V37H61.5938V24.3203H64.9805ZM61.6992 22.7852L63.9961 19.1758H67.6641L64.4414 22.7852H61.6992ZM75.3867 34.2344V19H78.7852V37H75.7266L75.3867 34.2344ZM67.3711 30.8125V30.5664C67.3711 29.5977 67.4805 28.7188 67.6992 27.9297C67.918 27.1328 68.2383 26.4492 68.6602 25.8789C69.082 25.3086 69.6016 24.8672 70.2188 24.5547C70.8359 24.2422 71.5391 24.0859 72.3281 24.0859C73.0703 24.0859 73.7188 24.2422 74.2734 24.5547C74.8359 24.8672 75.3125 25.3125 75.7031 25.8906C76.1016 26.4609 76.4219 27.1367 76.6641 27.918C76.9062 28.6914 77.082 29.5391 77.1914 30.4609V31C77.082 31.8828 76.9062 32.7031 76.6641 33.4609C76.4219 34.2188 76.1016 34.8828 75.7031 35.4531C75.3125 36.0156 74.8359 36.4531 74.2734 36.7656C73.7109 37.0781 73.0547 37.2344 72.3047 37.2344C71.5156 37.2344 70.8125 37.0742 70.1953 36.7539C69.5859 36.4336 69.0703 35.9844 68.6484 35.4062C68.2344 34.8281 67.918 34.1484 67.6992 33.3672C67.4805 32.5859 67.3711 31.7344 67.3711 30.8125ZM70.7461 30.5664V30.8125C70.7461 31.3359 70.7852 31.8242 70.8633 32.2773C70.9492 32.7305 71.0859 33.1328 71.2734 33.4844C71.4688 33.8281 71.7188 34.0977 72.0234 34.293C72.3359 34.4805 72.7148 34.5742 73.1602 34.5742C73.7383 34.5742 74.2148 34.4453 74.5898 34.1875C74.9648 33.9219 75.25 33.5586 75.4453 33.0977C75.6484 32.6367 75.7656 32.1055 75.7969 31.5039V29.9688C75.7734 29.4766 75.7031 29.0352 75.5859 28.6445C75.4766 28.2461 75.3125 27.9062 75.0938 27.625C74.8828 27.3438 74.6172 27.125 74.2969 26.9688C73.9844 26.8125 73.6133 26.7344 73.1836 26.7344C72.7461 26.7344 72.3711 26.8359 72.0586 27.0391C71.7461 27.2344 71.4922 27.5039 71.2969 27.8477C71.1094 28.1914 70.9688 28.5977 70.875 29.0664C70.7891 29.5273 70.7461 30.0273 70.7461 30.5664ZM84.9844 24.3203V37H81.5977V24.3203H84.9844ZM81.3867 21.0156C81.3867 20.5234 81.5586 20.1172 81.9023 19.7969C82.2461 19.4766 82.707 19.3164 83.2852 19.3164C83.8555 19.3164 84.3125 19.4766 84.6562 19.7969C85.0078 20.1172 85.1836 20.5234 85.1836 21.0156C85.1836 21.5078 85.0078 21.9141 84.6562 22.2344C84.3125 22.5547 83.8555 22.7148 83.2852 22.7148C82.707 22.7148 82.2461 22.5547 81.9023 22.2344C81.5586 21.9141 81.3867 21.5078 81.3867 21.0156ZM94.6172 34.1406V28.4922C94.6172 28.0859 94.5508 27.7383 94.418 27.4492C94.2852 27.1523 94.0781 26.9219 93.7969 26.7578C93.5234 26.5938 93.168 26.5117 92.7305 26.5117C92.3555 26.5117 92.0312 26.5781 91.7578 26.7109C91.4844 26.8359 91.2734 27.0195 91.125 27.2617C90.9766 27.4961 90.9023 27.7734 90.9023 28.0938H87.5273C87.5273 27.5547 87.6523 27.043 87.9023 26.5586C88.1523 26.0742 88.5156 25.6484 88.9922 25.2812C89.4688 24.9062 90.0352 24.6133 90.6914 24.4023C91.3555 24.1914 92.0977 24.0859 92.918 24.0859C93.9023 24.0859 94.7773 24.25 95.543 24.5781C96.3086 24.9062 96.9102 25.3984 97.3477 26.0547C97.793 26.7109 98.0156 27.5312 98.0156 28.5156V33.9414C98.0156 34.6367 98.0586 35.207 98.1445 35.6523C98.2305 36.0898 98.3555 36.4727 98.5195 36.8008V37H95.1094C94.9453 36.6562 94.8203 36.2266 94.7344 35.7109C94.6562 35.1875 94.6172 34.6641 94.6172 34.1406ZM95.0625 29.2773L95.0859 31.1875H93.1992C92.7539 31.1875 92.3672 31.2383 92.0391 31.3398C91.7109 31.4414 91.4414 31.5859 91.2305 31.7734C91.0195 31.9531 90.8633 32.1641 90.7617 32.4062C90.668 32.6484 90.6211 32.9141 90.6211 33.2031C90.6211 33.4922 90.6875 33.7539 90.8203 33.9883C90.9531 34.2148 91.1445 34.3945 91.3945 34.5273C91.6445 34.6523 91.9375 34.7148 92.2734 34.7148C92.7812 34.7148 93.2227 34.6133 93.5977 34.4102C93.9727 34.207 94.2617 33.957 94.4648 33.6602C94.6758 33.3633 94.7852 33.082 94.793 32.8164L95.6836 34.2461C95.5586 34.5664 95.3867 34.8984 95.168 35.2422C94.957 35.5859 94.6875 35.9102 94.3594 36.2148C94.0312 36.5117 93.6367 36.7578 93.1758 36.9531C92.7148 37.1406 92.168 37.2344 91.5352 37.2344C90.7305 37.2344 90 37.0742 89.3438 36.7539C88.6953 36.4258 88.1797 35.9766 87.7969 35.4062C87.4219 34.8281 87.2344 34.1719 87.2344 33.4375C87.2344 32.7734 87.3594 32.1836 87.6094 31.668C87.8594 31.1523 88.2266 30.7188 88.7109 30.3672C89.2031 30.0078 89.8164 29.7383 90.5508 29.5586C91.2852 29.3711 92.1367 29.2773 93.1055 29.2773H95.0625ZM107.473 33.4961C107.473 33.2539 107.402 33.0352 107.262 32.8398C107.121 32.6445 106.859 32.4648 106.477 32.3008C106.102 32.1289 105.559 31.9727 104.848 31.832C104.207 31.6914 103.609 31.5156 103.055 31.3047C102.508 31.0859 102.031 30.8242 101.625 30.5195C101.227 30.2148 100.914 29.8555 100.688 29.4414C100.461 29.0195 100.348 28.5391 100.348 28C100.348 27.4688 100.461 26.9688 100.688 26.5C100.922 26.0312 101.254 25.6172 101.684 25.2578C102.121 24.8906 102.652 24.6055 103.277 24.4023C103.91 24.1914 104.621 24.0859 105.41 24.0859C106.512 24.0859 107.457 24.2617 108.246 24.6133C109.043 24.9648 109.652 25.4492 110.074 26.0664C110.504 26.6758 110.719 27.3711 110.719 28.1523H107.344C107.344 27.8242 107.273 27.5312 107.133 27.2734C107 27.0078 106.789 26.8008 106.5 26.6523C106.219 26.4961 105.852 26.418 105.398 26.418C105.023 26.418 104.699 26.4844 104.426 26.6172C104.152 26.7422 103.941 26.9141 103.793 27.1328C103.652 27.3438 103.582 27.5781 103.582 27.8359C103.582 28.0312 103.621 28.207 103.699 28.3633C103.785 28.5117 103.922 28.6484 104.109 28.7734C104.297 28.8984 104.539 29.0156 104.836 29.125C105.141 29.2266 105.516 29.3203 105.961 29.4062C106.875 29.5938 107.691 29.8398 108.41 30.1445C109.129 30.4414 109.699 30.8477 110.121 31.3633C110.543 31.8711 110.754 32.5391 110.754 33.3672C110.754 33.9297 110.629 34.4453 110.379 34.9141C110.129 35.3828 109.77 35.793 109.301 36.1445C108.832 36.4883 108.27 36.7578 107.613 36.9531C106.965 37.1406 106.234 37.2344 105.422 37.2344C104.242 37.2344 103.242 37.0234 102.422 36.6016C101.609 36.1797 100.992 35.6445 100.57 34.9961C100.156 34.3398 99.9492 33.668 99.9492 32.9805H103.148C103.164 33.4414 103.281 33.8125 103.5 34.0938C103.727 34.375 104.012 34.5781 104.355 34.7031C104.707 34.8281 105.086 34.8906 105.492 34.8906C105.93 34.8906 106.293 34.832 106.582 34.7148C106.871 34.5898 107.09 34.4258 107.238 34.2227C107.395 34.0117 107.473 33.7695 107.473 33.4961Z" fill="white"/>
<path d="M148.377 24.4688V33H146.918V24.4688H148.377ZM151.055 24.4688V25.6406H144.264V24.4688H151.055ZM150.949 29.9004V29.7656C150.949 29.3086 151.016 28.8848 151.148 28.4941C151.281 28.0996 151.473 27.7578 151.723 27.4688C151.977 27.1758 152.285 26.9492 152.648 26.7891C153.016 26.625 153.43 26.543 153.891 26.543C154.355 26.543 154.77 26.625 155.133 26.7891C155.5 26.9492 155.811 27.1758 156.064 27.4688C156.318 27.7578 156.512 28.0996 156.645 28.4941C156.777 28.8848 156.844 29.3086 156.844 29.7656V29.9004C156.844 30.3574 156.777 30.7812 156.645 31.1719C156.512 31.5625 156.318 31.9043 156.064 32.1973C155.811 32.4863 155.502 32.7129 155.139 32.877C154.775 33.0371 154.363 33.1172 153.902 33.1172C153.438 33.1172 153.021 33.0371 152.654 32.877C152.291 32.7129 151.982 32.4863 151.729 32.1973C151.475 31.9043 151.281 31.5625 151.148 31.1719C151.016 30.7812 150.949 30.3574 150.949 29.9004ZM152.361 29.7656V29.9004C152.361 30.1855 152.391 30.4551 152.449 30.709C152.508 30.9629 152.6 31.1855 152.725 31.377C152.85 31.5684 153.01 31.7188 153.205 31.8281C153.4 31.9375 153.633 31.9922 153.902 31.9922C154.164 31.9922 154.391 31.9375 154.582 31.8281C154.777 31.7188 154.938 31.5684 155.062 31.377C155.188 31.1855 155.279 30.9629 155.338 30.709C155.4 30.4551 155.432 30.1855 155.432 29.9004V29.7656C155.432 29.4844 155.4 29.2188 155.338 28.9688C155.279 28.7148 155.186 28.4902 155.057 28.2949C154.932 28.0996 154.771 27.9473 154.576 27.8379C154.385 27.7246 154.156 27.668 153.891 27.668C153.625 27.668 153.395 27.7246 153.199 27.8379C153.008 27.9473 152.85 28.0996 152.725 28.2949C152.6 28.4902 152.508 28.7148 152.449 28.9688C152.391 29.2188 152.361 29.4844 152.361 29.7656ZM161.895 31.6875V24H163.312V33H162.029L161.895 31.6875ZM157.77 29.9004V29.7773C157.77 29.2969 157.826 28.8594 157.939 28.4648C158.053 28.0664 158.217 27.7246 158.432 27.4395C158.646 27.1504 158.908 26.9297 159.217 26.7773C159.525 26.6211 159.873 26.543 160.26 26.543C160.643 26.543 160.979 26.6172 161.268 26.7656C161.557 26.9141 161.803 27.127 162.006 27.4043C162.209 27.6777 162.371 28.0059 162.492 28.3887C162.613 28.7676 162.699 29.1895 162.75 29.6543V30.0469C162.699 30.5 162.613 30.9141 162.492 31.2891C162.371 31.6641 162.209 31.9883 162.006 32.2617C161.803 32.5352 161.555 32.7461 161.262 32.8945C160.973 33.043 160.635 33.1172 160.248 33.1172C159.865 33.1172 159.52 33.0371 159.211 32.877C158.906 32.7168 158.646 32.4922 158.432 32.2031C158.217 31.9141 158.053 31.5742 157.939 31.1836C157.826 30.7891 157.77 30.3613 157.77 29.9004ZM159.182 29.7773V29.9004C159.182 30.1895 159.207 30.459 159.258 30.709C159.312 30.959 159.396 31.1797 159.51 31.3711C159.623 31.5586 159.77 31.707 159.949 31.8164C160.133 31.9219 160.352 31.9746 160.605 31.9746C160.926 31.9746 161.189 31.9043 161.396 31.7637C161.604 31.623 161.766 31.4336 161.883 31.1953C162.004 30.9531 162.086 30.6836 162.129 30.3867V29.3262C162.105 29.0957 162.057 28.8809 161.982 28.6816C161.912 28.4824 161.816 28.3086 161.695 28.1602C161.574 28.0078 161.424 27.8906 161.244 27.8086C161.068 27.7227 160.859 27.6797 160.617 27.6797C160.359 27.6797 160.141 27.7344 159.961 27.8438C159.781 27.9531 159.633 28.1035 159.516 28.2949C159.402 28.4863 159.318 28.709 159.264 28.9629C159.209 29.2168 159.182 29.4883 159.182 29.7773ZM168.363 31.7285V28.7051C168.363 28.4785 168.322 28.2832 168.24 28.1191C168.158 27.9551 168.033 27.8281 167.865 27.7383C167.701 27.6484 167.494 27.6035 167.244 27.6035C167.014 27.6035 166.814 27.6426 166.646 27.7207C166.479 27.7988 166.348 27.9043 166.254 28.0371C166.16 28.1699 166.113 28.3203 166.113 28.4883H164.707C164.707 28.2383 164.768 27.9961 164.889 27.7617C165.01 27.5273 165.186 27.3184 165.416 27.1348C165.646 26.9512 165.922 26.8066 166.242 26.7012C166.562 26.5957 166.922 26.543 167.32 26.543C167.797 26.543 168.219 26.623 168.586 26.7832C168.957 26.9434 169.248 27.1855 169.459 27.5098C169.674 27.8301 169.781 28.2324 169.781 28.7168V31.5352C169.781 31.8242 169.801 32.084 169.84 32.3145C169.883 32.541 169.943 32.7383 170.021 32.9062V33H168.574C168.508 32.8477 168.455 32.6543 168.416 32.4199C168.381 32.1816 168.363 31.9512 168.363 31.7285ZM168.568 29.1445L168.58 30.0176H167.566C167.305 30.0176 167.074 30.043 166.875 30.0938C166.676 30.1406 166.51 30.2109 166.377 30.3047C166.244 30.3984 166.145 30.5117 166.078 30.6445C166.012 30.7773 165.979 30.9277 165.979 31.0957C165.979 31.2637 166.018 31.418 166.096 31.5586C166.174 31.6953 166.287 31.8027 166.436 31.8809C166.588 31.959 166.771 31.998 166.986 31.998C167.275 31.998 167.527 31.9395 167.742 31.8223C167.961 31.7012 168.133 31.5547 168.258 31.3828C168.383 31.207 168.449 31.041 168.457 30.8848L168.914 31.5117C168.867 31.6719 168.787 31.8438 168.674 32.0273C168.561 32.2109 168.412 32.3867 168.229 32.5547C168.049 32.7188 167.832 32.8535 167.578 32.959C167.328 33.0645 167.039 33.1172 166.711 33.1172C166.297 33.1172 165.928 33.0352 165.604 32.8711C165.279 32.7031 165.025 32.4785 164.842 32.1973C164.658 31.9121 164.566 31.5898 164.566 31.2305C164.566 30.8945 164.629 30.5977 164.754 30.3398C164.883 30.0781 165.07 29.8594 165.316 29.6836C165.566 29.5078 165.871 29.375 166.23 29.2852C166.59 29.1914 167 29.1445 167.461 29.1445H168.568ZM174.814 31.2832C174.814 31.1426 174.779 31.0156 174.709 30.9023C174.639 30.7852 174.504 30.6797 174.305 30.5859C174.109 30.4922 173.82 30.4062 173.438 30.3281C173.102 30.2539 172.793 30.166 172.512 30.0645C172.234 29.959 171.996 29.832 171.797 29.6836C171.598 29.5352 171.443 29.3594 171.334 29.1562C171.225 28.9531 171.17 28.7188 171.17 28.4531C171.17 28.1953 171.227 27.9512 171.34 27.7207C171.453 27.4902 171.615 27.2871 171.826 27.1113C172.037 26.9355 172.293 26.7969 172.594 26.6953C172.898 26.5938 173.238 26.543 173.613 26.543C174.145 26.543 174.6 26.6328 174.979 26.8125C175.361 26.9883 175.654 27.2285 175.857 27.5332C176.061 27.834 176.162 28.1738 176.162 28.5527H174.75C174.75 28.3848 174.707 28.2285 174.621 28.084C174.539 27.9355 174.414 27.8164 174.246 27.7266C174.078 27.6328 173.867 27.5859 173.613 27.5859C173.371 27.5859 173.17 27.625 173.01 27.7031C172.854 27.7773 172.736 27.875 172.658 27.9961C172.584 28.1172 172.547 28.25 172.547 28.3945C172.547 28.5 172.566 28.5957 172.605 28.6816C172.648 28.7637 172.719 28.8398 172.816 28.9102C172.914 28.9766 173.047 29.0391 173.215 29.0977C173.387 29.1562 173.602 29.2129 173.859 29.2676C174.344 29.3691 174.76 29.5 175.107 29.6602C175.459 29.8164 175.729 30.0195 175.916 30.2695C176.104 30.5156 176.197 30.8281 176.197 31.207C176.197 31.4883 176.137 31.7461 176.016 31.9805C175.898 32.2109 175.727 32.4121 175.5 32.584C175.273 32.752 175.002 32.8828 174.686 32.9766C174.373 33.0703 174.021 33.1172 173.631 33.1172C173.057 33.1172 172.57 33.0156 172.172 32.8125C171.773 32.6055 171.471 32.3418 171.264 32.0215C171.061 31.6973 170.959 31.3613 170.959 31.0137H172.324C172.34 31.2754 172.412 31.4844 172.541 31.6406C172.674 31.793 172.838 31.9043 173.033 31.9746C173.232 32.041 173.438 32.0742 173.648 32.0742C173.902 32.0742 174.115 32.041 174.287 31.9746C174.459 31.9043 174.59 31.8105 174.68 31.6934C174.77 31.5723 174.814 31.4355 174.814 31.2832ZM183.996 31.7285V28.7051C183.996 28.4785 183.955 28.2832 183.873 28.1191C183.791 27.9551 183.666 27.8281 183.498 27.7383C183.334 27.6484 183.127 27.6035 182.877 27.6035C182.646 27.6035 182.447 27.6426 182.279 27.7207C182.111 27.7988 181.98 27.9043 181.887 28.0371C181.793 28.1699 181.746 28.3203 181.746 28.4883H180.34C180.34 28.2383 180.4 27.9961 180.521 27.7617C180.643 27.5273 180.818 27.3184 181.049 27.1348C181.279 26.9512 181.555 26.8066 181.875 26.7012C182.195 26.5957 182.555 26.543 182.953 26.543C183.43 26.543 183.852 26.623 184.219 26.7832C184.59 26.9434 184.881 27.1855 185.092 27.5098C185.307 27.8301 185.414 28.2324 185.414 28.7168V31.5352C185.414 31.8242 185.434 32.084 185.473 32.3145C185.516 32.541 185.576 32.7383 185.654 32.9062V33H184.207C184.141 32.8477 184.088 32.6543 184.049 32.4199C184.014 32.1816 183.996 31.9512 183.996 31.7285ZM184.201 29.1445L184.213 30.0176H183.199C182.938 30.0176 182.707 30.043 182.508 30.0938C182.309 30.1406 182.143 30.2109 182.01 30.3047C181.877 30.3984 181.777 30.5117 181.711 30.6445C181.645 30.7773 181.611 30.9277 181.611 31.0957C181.611 31.2637 181.65 31.418 181.729 31.5586C181.807 31.6953 181.92 31.8027 182.068 31.8809C182.221 31.959 182.404 31.998 182.619 31.998C182.908 31.998 183.16 31.9395 183.375 31.8223C183.594 31.7012 183.766 31.5547 183.891 31.3828C184.016 31.207 184.082 31.041 184.09 30.8848L184.547 31.5117C184.5 31.6719 184.42 31.8438 184.307 32.0273C184.193 32.2109 184.045 32.3867 183.861 32.5547C183.682 32.7188 183.465 32.8535 183.211 32.959C182.961 33.0645 182.672 33.1172 182.344 33.1172C181.93 33.1172 181.561 33.0352 181.236 32.8711C180.912 32.7031 180.658 32.4785 180.475 32.1973C180.291 31.9121 180.199 31.5898 180.199 31.2305C180.199 30.8945 180.262 30.5977 180.387 30.3398C180.516 30.0781 180.703 29.8594 180.949 29.6836C181.199 29.5078 181.504 29.375 181.863 29.2852C182.223 29.1914 182.633 29.1445 183.094 29.1445H184.201ZM190.447 31.2832C190.447 31.1426 190.412 31.0156 190.342 30.9023C190.271 30.7852 190.137 30.6797 189.938 30.5859C189.742 30.4922 189.453 30.4062 189.07 30.3281C188.734 30.2539 188.426 30.166 188.145 30.0645C187.867 29.959 187.629 29.832 187.43 29.6836C187.23 29.5352 187.076 29.3594 186.967 29.1562C186.857 28.9531 186.803 28.7188 186.803 28.4531C186.803 28.1953 186.859 27.9512 186.973 27.7207C187.086 27.4902 187.248 27.2871 187.459 27.1113C187.67 26.9355 187.926 26.7969 188.227 26.6953C188.531 26.5938 188.871 26.543 189.246 26.543C189.777 26.543 190.232 26.6328 190.611 26.8125C190.994 26.9883 191.287 27.2285 191.49 27.5332C191.693 27.834 191.795 28.1738 191.795 28.5527H190.383C190.383 28.3848 190.34 28.2285 190.254 28.084C190.172 27.9355 190.047 27.8164 189.879 27.7266C189.711 27.6328 189.5 27.5859 189.246 27.5859C189.004 27.5859 188.803 27.625 188.643 27.7031C188.486 27.7773 188.369 27.875 188.291 27.9961C188.217 28.1172 188.18 28.25 188.18 28.3945C188.18 28.5 188.199 28.5957 188.238 28.6816C188.281 28.7637 188.352 28.8398 188.449 28.9102C188.547 28.9766 188.68 29.0391 188.848 29.0977C189.02 29.1562 189.234 29.2129 189.492 29.2676C189.977 29.3691 190.393 29.5 190.74 29.6602C191.092 29.8164 191.361 30.0195 191.549 30.2695C191.736 30.5156 191.83 30.8281 191.83 31.207C191.83 31.4883 191.77 31.7461 191.648 31.9805C191.531 32.2109 191.359 32.4121 191.133 32.584C190.906 32.752 190.635 32.8828 190.318 32.9766C190.006 33.0703 189.654 33.1172 189.264 33.1172C188.689 33.1172 188.203 33.0156 187.805 32.8125C187.406 32.6055 187.104 32.3418 186.896 32.0215C186.693 31.6973 186.592 31.3613 186.592 31.0137H187.957C187.973 31.2754 188.045 31.4844 188.174 31.6406C188.307 31.793 188.471 31.9043 188.666 31.9746C188.865 32.041 189.07 32.0742 189.281 32.0742C189.535 32.0742 189.748 32.041 189.92 31.9746C190.092 31.9043 190.223 31.8105 190.312 31.6934C190.402 31.5723 190.447 31.4355 190.447 31.2832ZM198.645 31.9922C198.875 31.9922 199.082 31.9473 199.266 31.8574C199.453 31.7637 199.604 31.6348 199.717 31.4707C199.834 31.3066 199.898 31.1172 199.91 30.9023H201.24C201.232 31.3125 201.111 31.6855 200.877 32.0215C200.643 32.3574 200.332 32.625 199.945 32.8242C199.559 33.0195 199.131 33.1172 198.662 33.1172C198.178 33.1172 197.756 33.0352 197.396 32.8711C197.037 32.7031 196.738 32.4727 196.5 32.1797C196.262 31.8867 196.082 31.5488 195.961 31.166C195.844 30.7832 195.785 30.373 195.785 29.9355V29.7305C195.785 29.293 195.844 28.8828 195.961 28.5C196.082 28.1133 196.262 27.7734 196.5 27.4805C196.738 27.1875 197.037 26.959 197.396 26.7949C197.756 26.627 198.176 26.543 198.656 26.543C199.164 26.543 199.609 26.6445 199.992 26.8477C200.375 27.0469 200.676 27.3262 200.895 27.6855C201.117 28.041 201.232 28.4551 201.24 28.9277H199.91C199.898 28.6934 199.84 28.4824 199.734 28.2949C199.633 28.1035 199.488 27.9512 199.301 27.8379C199.117 27.7246 198.896 27.668 198.639 27.668C198.354 27.668 198.117 27.7266 197.93 27.8438C197.742 27.957 197.596 28.1133 197.49 28.3125C197.385 28.5078 197.309 28.7285 197.262 28.9746C197.219 29.2168 197.197 29.4688 197.197 29.7305V29.9355C197.197 30.1973 197.219 30.4512 197.262 30.6973C197.305 30.9434 197.379 31.1641 197.484 31.3594C197.594 31.5508 197.742 31.7051 197.93 31.8223C198.117 31.9355 198.355 31.9922 198.645 31.9922ZM205.898 31.7285V28.7051C205.898 28.4785 205.857 28.2832 205.775 28.1191C205.693 27.9551 205.568 27.8281 205.4 27.7383C205.236 27.6484 205.029 27.6035 204.779 27.6035C204.549 27.6035 204.35 27.6426 204.182 27.7207C204.014 27.7988 203.883 27.9043 203.789 28.0371C203.695 28.1699 203.648 28.3203 203.648 28.4883H202.242C202.242 28.2383 202.303 27.9961 202.424 27.7617C202.545 27.5273 202.721 27.3184 202.951 27.1348C203.182 26.9512 203.457 26.8066 203.777 26.7012C204.098 26.5957 204.457 26.543 204.855 26.543C205.332 26.543 205.754 26.623 206.121 26.7832C206.492 26.9434 206.783 27.1855 206.994 27.5098C207.209 27.8301 207.316 28.2324 207.316 28.7168V31.5352C207.316 31.8242 207.336 32.084 207.375 32.3145C207.418 32.541 207.479 32.7383 207.557 32.9062V33H206.109C206.043 32.8477 205.99 32.6543 205.951 32.4199C205.916 32.1816 205.898 31.9512 205.898 31.7285ZM206.104 29.1445L206.115 30.0176H205.102C204.84 30.0176 204.609 30.043 204.41 30.0938C204.211 30.1406 204.045 30.2109 203.912 30.3047C203.779 30.3984 203.68 30.5117 203.613 30.6445C203.547 30.7773 203.514 30.9277 203.514 31.0957C203.514 31.2637 203.553 31.418 203.631 31.5586C203.709 31.6953 203.822 31.8027 203.971 31.8809C204.123 31.959 204.307 31.998 204.521 31.998C204.811 31.998 205.062 31.9395 205.277 31.8223C205.496 31.7012 205.668 31.5547 205.793 31.3828C205.918 31.207 205.984 31.041 205.992 30.8848L206.449 31.5117C206.402 31.6719 206.322 31.8438 206.209 32.0273C206.096 32.2109 205.947 32.3867 205.764 32.5547C205.584 32.7188 205.367 32.8535 205.113 32.959C204.863 33.0645 204.574 33.1172 204.246 33.1172C203.832 33.1172 203.463 33.0352 203.139 32.8711C202.814 32.7031 202.561 32.4785 202.377 32.1973C202.193 31.9121 202.102 31.5898 202.102 31.2305C202.102 30.8945 202.164 30.5977 202.289 30.3398C202.418 30.0781 202.605 29.8594 202.852 29.6836C203.102 29.5078 203.406 29.375 203.766 29.2852C204.125 29.1914 204.535 29.1445 204.996 29.1445H206.104ZM211.699 26.6602V27.6914H208.125V26.6602H211.699ZM209.156 25.1074H210.568V31.248C210.568 31.4434 210.596 31.5938 210.65 31.6992C210.709 31.8008 210.789 31.8691 210.891 31.9043C210.992 31.9395 211.111 31.957 211.248 31.957C211.346 31.957 211.439 31.9512 211.529 31.9395C211.619 31.9277 211.691 31.916 211.746 31.9043L211.752 32.9824C211.635 33.0176 211.498 33.0488 211.342 33.0762C211.189 33.1035 211.014 33.1172 210.814 33.1172C210.49 33.1172 210.203 33.0605 209.953 32.9473C209.703 32.8301 209.508 32.6406 209.367 32.3789C209.227 32.1172 209.156 31.7695 209.156 31.3359V25.1074ZM215.584 33.1172C215.115 33.1172 214.691 33.041 214.312 32.8887C213.938 32.7324 213.617 32.5156 213.352 32.2383C213.09 31.9609 212.889 31.6348 212.748 31.2598C212.607 30.8848 212.537 30.4805 212.537 30.0469V29.8125C212.537 29.3164 212.609 28.8672 212.754 28.4648C212.898 28.0625 213.1 27.7188 213.357 27.4336C213.615 27.1445 213.92 26.9238 214.271 26.7715C214.623 26.6191 215.004 26.543 215.414 26.543C215.867 26.543 216.264 26.6191 216.604 26.7715C216.943 26.9238 217.225 27.1387 217.447 27.416C217.674 27.6895 217.842 28.0156 217.951 28.3945C218.064 28.7734 218.121 29.1914 218.121 29.6484V30.252H213.223V29.2383H216.727V29.127C216.719 28.873 216.668 28.6348 216.574 28.4121C216.484 28.1895 216.346 28.0098 216.158 27.873C215.971 27.7363 215.721 27.668 215.408 27.668C215.174 27.668 214.965 27.7188 214.781 27.8203C214.602 27.918 214.451 28.0605 214.33 28.248C214.209 28.4355 214.115 28.6621 214.049 28.9277C213.986 29.1895 213.955 29.4844 213.955 29.8125V30.0469C213.955 30.3242 213.992 30.582 214.066 30.8203C214.145 31.0547 214.258 31.2598 214.406 31.4355C214.555 31.6113 214.734 31.75 214.945 31.8516C215.156 31.9492 215.396 31.998 215.666 31.998C216.006 31.998 216.309 31.9297 216.574 31.793C216.84 31.6562 217.07 31.4629 217.266 31.2129L218.01 31.9336C217.873 32.1328 217.695 32.3242 217.477 32.5078C217.258 32.6875 216.99 32.834 216.674 32.9473C216.361 33.0605 215.998 33.1172 215.584 33.1172ZM223.283 26.6602H224.566V32.8242C224.566 33.3945 224.445 33.8789 224.203 34.2773C223.961 34.6758 223.623 34.9785 223.189 35.1855C222.756 35.3965 222.254 35.502 221.684 35.502C221.441 35.502 221.172 35.4668 220.875 35.3965C220.582 35.3262 220.297 35.2129 220.02 35.0566C219.746 34.9043 219.518 34.7031 219.334 34.4531L219.996 33.6211C220.223 33.8906 220.473 34.0879 220.746 34.2129C221.02 34.3379 221.307 34.4004 221.607 34.4004C221.932 34.4004 222.207 34.3398 222.434 34.2188C222.664 34.1016 222.842 33.9277 222.967 33.6973C223.092 33.4668 223.154 33.1855 223.154 32.8535V28.0957L223.283 26.6602ZM218.977 29.9004V29.7773C218.977 29.2969 219.035 28.8594 219.152 28.4648C219.27 28.0664 219.438 27.7246 219.656 27.4395C219.875 27.1504 220.141 26.9297 220.453 26.7773C220.766 26.6211 221.119 26.543 221.514 26.543C221.924 26.543 222.273 26.6172 222.562 26.7656C222.855 26.9141 223.1 27.127 223.295 27.4043C223.49 27.6777 223.643 28.0059 223.752 28.3887C223.865 28.7676 223.949 29.1895 224.004 29.6543V30.0469C223.953 30.5 223.867 30.9141 223.746 31.2891C223.625 31.6641 223.465 31.9883 223.266 32.2617C223.066 32.5352 222.82 32.7461 222.527 32.8945C222.238 33.043 221.896 33.1172 221.502 33.1172C221.115 33.1172 220.766 33.0371 220.453 32.877C220.145 32.7168 219.879 32.4922 219.656 32.2031C219.438 31.9141 219.27 31.5742 219.152 31.1836C219.035 30.7891 218.977 30.3613 218.977 29.9004ZM220.389 29.7773V29.9004C220.389 30.1895 220.416 30.459 220.471 30.709C220.529 30.959 220.617 31.1797 220.734 31.3711C220.855 31.5586 221.008 31.707 221.191 31.8164C221.379 31.9219 221.6 31.9746 221.854 31.9746C222.186 31.9746 222.457 31.9043 222.668 31.7637C222.883 31.623 223.047 31.4336 223.16 31.1953C223.277 30.9531 223.359 30.6836 223.406 30.3867V29.3262C223.383 29.0957 223.334 28.8809 223.26 28.6816C223.189 28.4824 223.094 28.3086 222.973 28.1602C222.852 28.0078 222.699 27.8906 222.516 27.8086C222.332 27.7227 222.115 27.6797 221.865 27.6797C221.611 27.6797 221.391 27.7344 221.203 27.8438C221.016 27.9531 220.861 28.1035 220.74 28.2949C220.623 28.4863 220.535 28.709 220.477 28.9629C220.418 29.2168 220.389 29.4883 220.389 29.7773ZM225.762 29.9004V29.7656C225.762 29.3086 225.828 28.8848 225.961 28.4941C226.094 28.0996 226.285 27.7578 226.535 27.4688C226.789 27.1758 227.098 26.9492 227.461 26.7891C227.828 26.625 228.242 26.543 228.703 26.543C229.168 26.543 229.582 26.625 229.945 26.7891C230.312 26.9492 230.623 27.1758 230.877 27.4688C231.131 27.7578 231.324 28.0996 231.457 28.4941C231.59 28.8848 231.656 29.3086 231.656 29.7656V29.9004C231.656 30.3574 231.59 30.7812 231.457 31.1719C231.324 31.5625 231.131 31.9043 230.877 32.1973C230.623 32.4863 230.314 32.7129 229.951 32.877C229.588 33.0371 229.176 33.1172 228.715 33.1172C228.25 33.1172 227.834 33.0371 227.467 32.877C227.104 32.7129 226.795 32.4863 226.541 32.1973C226.287 31.9043 226.094 31.5625 225.961 31.1719C225.828 30.7812 225.762 30.3574 225.762 29.9004ZM227.174 29.7656V29.9004C227.174 30.1855 227.203 30.4551 227.262 30.709C227.32 30.9629 227.412 31.1855 227.537 31.377C227.662 31.5684 227.822 31.7188 228.018 31.8281C228.213 31.9375 228.445 31.9922 228.715 31.9922C228.977 31.9922 229.203 31.9375 229.395 31.8281C229.59 31.7188 229.75 31.5684 229.875 31.377C230 31.1855 230.092 30.9629 230.15 30.709C230.213 30.4551 230.244 30.1855 230.244 29.9004V29.7656C230.244 29.4844 230.213 29.2188 230.15 28.9688C230.092 28.7148 229.998 28.4902 229.869 28.2949C229.744 28.0996 229.584 27.9473 229.389 27.8379C229.197 27.7246 228.969 27.668 228.703 27.668C228.438 27.668 228.207 27.7246 228.012 27.8379C227.82 27.9473 227.662 28.0996 227.537 28.2949C227.412 28.4902 227.32 28.7148 227.262 28.9688C227.203 29.2188 227.174 29.4844 227.174 29.7656ZM234.258 27.8672V33H232.846V26.6602H234.193L234.258 27.8672ZM236.197 26.6191L236.186 27.9316C236.1 27.916 236.006 27.9043 235.904 27.8965C235.807 27.8887 235.709 27.8848 235.611 27.8848C235.369 27.8848 235.156 27.9199 234.973 27.9902C234.789 28.0566 234.635 28.1543 234.51 28.2832C234.389 28.4082 234.295 28.5605 234.229 28.7402C234.162 28.9199 234.123 29.1211 234.111 29.3438L233.789 29.3672C233.789 28.9688 233.828 28.5996 233.906 28.2598C233.984 27.9199 234.102 27.6211 234.258 27.3633C234.418 27.1055 234.617 26.9043 234.855 26.7598C235.098 26.6152 235.377 26.543 235.693 26.543C235.779 26.543 235.871 26.5508 235.969 26.5664C236.07 26.582 236.146 26.5996 236.197 26.6191ZM238.594 26.6602V33H237.176V26.6602H238.594ZM237.082 24.9961C237.082 24.7812 237.152 24.6035 237.293 24.4629C237.438 24.3184 237.637 24.2461 237.891 24.2461C238.141 24.2461 238.338 24.3184 238.482 24.4629C238.627 24.6035 238.699 24.7812 238.699 24.9961C238.699 25.207 238.627 25.3828 238.482 25.5234C238.338 25.6641 238.141 25.7344 237.891 25.7344C237.637 25.7344 237.438 25.6641 237.293 25.5234C237.152 25.3828 237.082 25.207 237.082 24.9961ZM243.715 31.7285V28.7051C243.715 28.4785 243.674 28.2832 243.592 28.1191C243.51 27.9551 243.385 27.8281 243.217 27.7383C243.053 27.6484 242.846 27.6035 242.596 27.6035C242.365 27.6035 242.166 27.6426 241.998 27.7207C241.83 27.7988 241.699 27.9043 241.605 28.0371C241.512 28.1699 241.465 28.3203 241.465 28.4883H240.059C240.059 28.2383 240.119 27.9961 240.24 27.7617C240.361 27.5273 240.537 27.3184 240.768 27.1348C240.998 26.9512 241.273 26.8066 241.594 26.7012C241.914 26.5957 242.273 26.543 242.672 26.543C243.148 26.543 243.57 26.623 243.938 26.7832C244.309 26.9434 244.6 27.1855 244.811 27.5098C245.025 27.8301 245.133 28.2324 245.133 28.7168V31.5352C245.133 31.8242 245.152 32.084 245.191 32.3145C245.234 32.541 245.295 32.7383 245.373 32.9062V33H243.926C243.859 32.8477 243.807 32.6543 243.768 32.4199C243.732 32.1816 243.715 31.9512 243.715 31.7285ZM243.92 29.1445L243.932 30.0176H242.918C242.656 30.0176 242.426 30.043 242.227 30.0938C242.027 30.1406 241.861 30.2109 241.729 30.3047C241.596 30.3984 241.496 30.5117 241.43 30.6445C241.363 30.7773 241.33 30.9277 241.33 31.0957C241.33 31.2637 241.369 31.418 241.447 31.5586C241.525 31.6953 241.639 31.8027 241.787 31.8809C241.939 31.959 242.123 31.998 242.338 31.998C242.627 31.998 242.879 31.9395 243.094 31.8223C243.312 31.7012 243.484 31.5547 243.609 31.3828C243.734 31.207 243.801 31.041 243.809 30.8848L244.266 31.5117C244.219 31.6719 244.139 31.8438 244.025 32.0273C243.912 32.2109 243.764 32.3867 243.58 32.5547C243.4 32.7188 243.184 32.8535 242.93 32.959C242.68 33.0645 242.391 33.1172 242.062 33.1172C241.648 33.1172 241.279 33.0352 240.955 32.8711C240.631 32.7031 240.377 32.4785 240.193 32.1973C240.01 31.9121 239.918 31.5898 239.918 31.2305C239.918 30.8945 239.98 30.5977 240.105 30.3398C240.234 30.0781 240.422 29.8594 240.668 29.6836C240.918 29.5078 241.223 29.375 241.582 29.2852C241.941 29.1914 242.352 29.1445 242.812 29.1445H243.92ZM250.166 31.2832C250.166 31.1426 250.131 31.0156 250.061 30.9023C249.99 30.7852 249.855 30.6797 249.656 30.5859C249.461 30.4922 249.172 30.4062 248.789 30.3281C248.453 30.2539 248.145 30.166 247.863 30.0645C247.586 29.959 247.348 29.832 247.148 29.6836C246.949 29.5352 246.795 29.3594 246.686 29.1562C246.576 28.9531 246.521 28.7188 246.521 28.4531C246.521 28.1953 246.578 27.9512 246.691 27.7207C246.805 27.4902 246.967 27.2871 247.178 27.1113C247.389 26.9355 247.645 26.7969 247.945 26.6953C248.25 26.5938 248.59 26.543 248.965 26.543C249.496 26.543 249.951 26.6328 250.33 26.8125C250.713 26.9883 251.006 27.2285 251.209 27.5332C251.412 27.834 251.514 28.1738 251.514 28.5527H250.102C250.102 28.3848 250.059 28.2285 249.973 28.084C249.891 27.9355 249.766 27.8164 249.598 27.7266C249.43 27.6328 249.219 27.5859 248.965 27.5859C248.723 27.5859 248.521 27.625 248.361 27.7031C248.205 27.7773 248.088 27.875 248.01 27.9961C247.936 28.1172 247.898 28.25 247.898 28.3945C247.898 28.5 247.918 28.5957 247.957 28.6816C248 28.7637 248.07 28.8398 248.168 28.9102C248.266 28.9766 248.398 29.0391 248.566 29.0977C248.738 29.1562 248.953 29.2129 249.211 29.2676C249.695 29.3691 250.111 29.5 250.459 29.6602C250.811 29.8164 251.08 30.0195 251.268 30.2695C251.455 30.5156 251.549 30.8281 251.549 31.207C251.549 31.4883 251.488 31.7461 251.367 31.9805C251.25 32.2109 251.078 32.4121 250.852 32.584C250.625 32.752 250.354 32.8828 250.037 32.9766C249.725 33.0703 249.373 33.1172 248.982 33.1172C248.408 33.1172 247.922 33.0156 247.523 32.8125C247.125 32.6055 246.822 32.3418 246.615 32.0215C246.412 31.6973 246.311 31.3613 246.311 31.0137H247.676C247.691 31.2754 247.764 31.4844 247.893 31.6406C248.025 31.793 248.189 31.9043 248.385 31.9746C248.584 32.041 248.789 32.0742 249 32.0742C249.254 32.0742 249.467 32.041 249.639 31.9746C249.811 31.9043 249.941 31.8105 250.031 31.6934C250.121 31.5723 250.166 31.4355 250.166 31.2832Z" fill="white"/>
<path d="M265.835 28.0259L263.447 30.4309C263.314 30.5493 263.16 30.6075 263.006 30.6075C262.852 30.6075 262.698 30.5488 262.58 30.4314L260.192 28.0264C260.004 27.8549 259.952 27.5956 260.045 27.372C260.138 27.1484 260.358 27 260.601 27H265.394C265.637 27 265.856 27.1462 265.95 27.3711C266.043 27.596 266.008 27.8549 265.835 28.0259Z" fill="white"/>
</svg>
