<svg width="220" height="194" viewBox="0 0 220 194" fill="none" xmlns="http://www.w3.org/2000/svg">
<g filter="url(#filter0_d_131_2542)">
<g clip-path="url(#clip0_131_2542)">
<path d="M141 -2.48587e-06C176.346 -1.11296e-06 205 28.6538 205 64L205 146C205 150.418 201.418 154 197 154L23 154C18.5817 154 15 150.418 15 146L15 8C15 3.58172 18.5817 -7.2408e-06 23 -7.06919e-06L141 -2.48587e-06Z" fill="url(#paint0_linear_131_2542)"/>
<path d="M33.3457 106.392L29.8652 117L27.0615 117L31.8164 104.203L33.6006 104.203L33.3457 106.392ZM36.2373 117L32.748 106.392L32.4668 104.203L34.2686 104.203L39.0498 117L36.2373 117ZM36.0791 112.236L36.0791 114.302L29.3203 114.302L29.3203 112.236L36.0791 112.236ZM42.3281 109.318L42.3281 120.656L39.7969 120.656L39.7969 107.49L42.1436 107.49L42.3281 109.318ZM48.3486 112.14L48.3486 112.324C48.3486 113.016 48.2666 113.657 48.1025 114.249C47.9443 114.841 47.71 115.356 47.3994 115.796C47.0889 116.229 46.7021 116.569 46.2393 116.815C45.7822 117.056 45.2549 117.176 44.6572 117.176C44.0771 117.176 43.5732 117.059 43.1455 116.824C42.7178 116.59 42.3574 116.262 42.0645 115.84C41.7773 115.412 41.5459 114.917 41.3701 114.354C41.1943 113.792 41.0596 113.188 40.9658 112.544L40.9658 112.061C41.0596 111.369 41.1943 110.736 41.3701 110.162C41.5459 109.582 41.7773 109.081 42.0645 108.659C42.3574 108.231 42.7148 107.9 43.1367 107.666C43.5645 107.432 44.0654 107.314 44.6396 107.314C45.2432 107.314 45.7734 107.429 46.2305 107.657C46.6934 107.886 47.0801 108.214 47.3906 108.642C47.707 109.069 47.9443 109.579 48.1025 110.171C48.2666 110.763 48.3486 111.419 48.3486 112.14ZM45.8086 112.324L45.8086 112.14C45.8086 111.735 45.7734 111.363 45.7031 111.023C45.6387 110.678 45.5332 110.376 45.3867 110.118C45.2461 109.86 45.0586 109.661 44.8242 109.521C44.5957 109.374 44.3174 109.301 43.9893 109.301C43.6436 109.301 43.3477 109.356 43.1016 109.468C42.8613 109.579 42.665 109.74 42.5127 109.951C42.3604 110.162 42.2461 110.414 42.1699 110.707C42.0938 111 42.0469 111.331 42.0293 111.7L42.0293 112.922C42.0586 113.355 42.1406 113.745 42.2754 114.091C42.4102 114.431 42.6182 114.7 42.8994 114.899C43.1807 115.099 43.5498 115.198 44.0068 115.198C44.3408 115.198 44.6221 115.125 44.8506 114.979C45.0791 114.826 45.2637 114.618 45.4043 114.354C45.5508 114.091 45.6533 113.786 45.7119 113.44C45.7764 113.095 45.8086 112.723 45.8086 112.324ZM52.4531 109.318L52.4531 120.656L49.9219 120.656L49.9219 107.49L52.2686 107.49L52.4531 109.318ZM58.4736 112.14L58.4736 112.324C58.4736 113.016 58.3916 113.657 58.2275 114.249C58.0693 114.841 57.835 115.356 57.5244 115.796C57.2139 116.229 56.8271 116.569 56.3643 116.815C55.9072 117.056 55.3799 117.176 54.7822 117.176C54.2021 117.176 53.6982 117.059 53.2705 116.824C52.8428 116.59 52.4824 116.262 52.1895 115.84C51.9023 115.412 51.6709 114.917 51.4951 114.354C51.3193 113.792 51.1846 113.188 51.0908 112.544L51.0908 112.061C51.1846 111.369 51.3193 110.736 51.4951 110.162C51.6709 109.582 51.9023 109.081 52.1895 108.659C52.4824 108.231 52.8398 107.9 53.2617 107.666C53.6895 107.432 54.1904 107.314 54.7646 107.314C55.3682 107.314 55.8984 107.429 56.3555 107.657C56.8184 107.886 57.2051 108.214 57.5156 108.642C57.832 109.069 58.0693 109.579 58.2275 110.171C58.3916 110.763 58.4736 111.419 58.4736 112.14ZM55.9336 112.324L55.9336 112.14C55.9336 111.735 55.8984 111.363 55.8281 111.023C55.7637 110.678 55.6582 110.376 55.5117 110.118C55.3711 109.86 55.1836 109.661 54.9492 109.521C54.7207 109.374 54.4424 109.301 54.1143 109.301C53.7686 109.301 53.4727 109.356 53.2266 109.468C52.9863 109.579 52.79 109.74 52.6377 109.951C52.4854 110.162 52.3711 110.414 52.2949 110.707C52.2188 111 52.1719 111.331 52.1543 111.7L52.1543 112.922C52.1836 113.355 52.2656 113.745 52.4004 114.091C52.5352 114.431 52.7432 114.7 53.0244 114.899C53.3057 115.099 53.6748 115.198 54.1318 115.198C54.4658 115.198 54.7471 115.125 54.9756 114.979C55.2041 114.826 55.3887 114.618 55.5293 114.354C55.6758 114.091 55.7783 113.786 55.8369 113.44C55.9014 113.095 55.9336 112.723 55.9336 112.324ZM65.1885 114.372C65.1885 114.19 65.1357 114.026 65.0303 113.88C64.9248 113.733 64.7285 113.599 64.4414 113.476C64.1602 113.347 63.7529 113.229 63.2197 113.124C62.7393 113.019 62.291 112.887 61.875 112.729C61.4648 112.564 61.1074 112.368 60.8027 112.14C60.5039 111.911 60.2695 111.642 60.0996 111.331C59.9297 111.015 59.8447 110.654 59.8447 110.25C59.8447 109.852 59.9297 109.477 60.0996 109.125C60.2754 108.773 60.5244 108.463 60.8467 108.193C61.1748 107.918 61.5732 107.704 62.042 107.552C62.5166 107.394 63.0498 107.314 63.6416 107.314C64.4678 107.314 65.1768 107.446 65.7686 107.71C66.3662 107.974 66.8232 108.337 67.1396 108.8C67.4619 109.257 67.623 109.778 67.623 110.364L65.0918 110.364C65.0918 110.118 65.0391 109.898 64.9336 109.705C64.834 109.506 64.6758 109.351 64.459 109.239C64.248 109.122 63.9727 109.063 63.6328 109.063C63.3516 109.063 63.1084 109.113 62.9033 109.213C62.6982 109.307 62.54 109.436 62.4287 109.6C62.3232 109.758 62.2705 109.934 62.2705 110.127C62.2705 110.273 62.2998 110.405 62.3584 110.522C62.4229 110.634 62.5254 110.736 62.666 110.83C62.8066 110.924 62.9883 111.012 63.2109 111.094C63.4395 111.17 63.7207 111.24 64.0547 111.305C64.7402 111.445 65.3525 111.63 65.8916 111.858C66.4307 112.081 66.8584 112.386 67.1748 112.772C67.4912 113.153 67.6494 113.654 67.6494 114.275C67.6494 114.697 67.5557 115.084 67.3682 115.436C67.1807 115.787 66.9111 116.095 66.5596 116.358C66.208 116.616 65.7861 116.818 65.2939 116.965C64.8076 117.105 64.2598 117.176 63.6504 117.176C62.7656 117.176 62.0156 117.018 61.4004 116.701C60.791 116.385 60.3281 115.983 60.0117 115.497C59.7012 115.005 59.5459 114.501 59.5459 113.985L61.9453 113.985C61.957 114.331 62.0449 114.609 62.209 114.82C62.3789 115.031 62.5928 115.184 62.8506 115.277C63.1143 115.371 63.3984 115.418 63.7031 115.418C64.0313 115.418 64.3037 115.374 64.5205 115.286C64.7373 115.192 64.9014 115.069 65.0127 114.917C65.1299 114.759 65.1885 114.577 65.1885 114.372Z" fill="white"/>
<path opacity="0.8" d="M31.8398 129.929L28.5449 139L27.1982 139L30.9922 129.047L31.8604 129.047L31.8398 129.929ZM34.6016 139L31.2998 129.929L31.2793 129.047L32.1475 129.047L35.9551 139L34.6016 139ZM34.4307 135.315L34.4307 136.396L28.8389 136.396L28.8389 135.315L34.4307 135.315ZM38.3613 133.025L38.3613 141.844L37.0898 141.844L37.0898 131.604L38.252 131.604L38.3613 133.025ZM43.3447 135.24L43.3447 135.384C43.3447 135.922 43.2809 136.421 43.1533 136.881C43.0257 137.337 42.8389 137.733 42.5928 138.07C42.3512 138.408 42.0527 138.67 41.6973 138.856C41.3418 139.043 40.9339 139.137 40.4736 139.137C40.0042 139.137 39.5895 139.059 39.2295 138.904C38.8695 138.749 38.5641 138.524 38.3135 138.228C38.0628 137.931 37.8623 137.576 37.7119 137.161C37.5661 136.746 37.4658 136.279 37.4111 135.76L37.4111 134.994C37.4658 134.447 37.5684 133.957 37.7188 133.524C37.8691 133.091 38.0674 132.722 38.3135 132.417C38.5641 132.107 38.8672 131.872 39.2227 131.713C39.5781 131.549 39.9883 131.467 40.4531 131.467C40.918 131.467 41.3304 131.558 41.6904 131.74C42.0505 131.918 42.3535 132.173 42.5996 132.506C42.8457 132.839 43.0303 133.237 43.1533 133.702C43.2809 134.162 43.3447 134.675 43.3447 135.24ZM42.0732 135.384L42.0732 135.24C42.0732 134.871 42.0345 134.525 41.957 134.201C41.8796 133.873 41.7588 133.586 41.5947 133.34C41.4352 133.089 41.2301 132.893 40.9795 132.752C40.7288 132.606 40.4303 132.533 40.084 132.533C39.765 132.533 39.487 132.588 39.25 132.697C39.0176 132.807 38.8193 132.955 38.6553 133.142C38.4912 133.324 38.3568 133.534 38.252 133.771C38.1517 134.003 38.0765 134.244 38.0264 134.495L38.0264 136.266C38.1175 136.585 38.2451 136.885 38.4092 137.168C38.5732 137.446 38.792 137.672 39.0654 137.845C39.3389 138.013 39.6829 138.098 40.0977 138.098C40.4395 138.098 40.7334 138.027 40.9795 137.886C41.2301 137.74 41.4352 137.542 41.5947 137.291C41.7588 137.04 41.8796 136.753 41.957 136.43C42.0345 136.102 42.0732 135.753 42.0732 135.384ZM46.332 128.5L46.332 139L45.0605 139L45.0605 128.5L46.332 128.5ZM49.7363 131.604L49.7363 139L48.4648 139L48.4648 131.604L49.7363 131.604ZM48.3691 129.642C48.3691 129.437 48.4307 129.263 48.5537 129.122C48.6813 128.981 48.8682 128.91 49.1143 128.91C49.3558 128.91 49.5404 128.981 49.668 129.122C49.8001 129.263 49.8662 129.437 49.8662 129.642C49.8662 129.838 49.8001 130.006 49.668 130.147C49.5404 130.284 49.3558 130.353 49.1143 130.353C48.8682 130.353 48.6813 130.284 48.5537 130.147C48.4307 130.006 48.3691 129.838 48.3691 129.642ZM54.7266 138.098C55.0273 138.098 55.3053 138.036 55.5605 137.913C55.8158 137.79 56.0254 137.621 56.1895 137.407C56.3535 137.188 56.4469 136.94 56.4697 136.662L57.6729 136.662C57.6501 137.1 57.502 137.507 57.2285 137.886C56.9596 138.259 56.6064 138.563 56.1689 138.795C55.7314 139.023 55.2507 139.137 54.7266 139.137C54.1706 139.137 53.6852 139.039 53.2705 138.843C52.8604 138.647 52.5186 138.378 52.2451 138.036C51.9762 137.694 51.7734 137.302 51.6367 136.86C51.5046 136.414 51.4385 135.942 51.4385 135.445L51.4385 135.158C51.4385 134.661 51.5046 134.192 51.6367 133.75C51.7734 133.303 51.9762 132.909 52.2451 132.567C52.5186 132.226 52.8604 131.957 53.2705 131.761C53.6852 131.565 54.1706 131.467 54.7266 131.467C55.3053 131.467 55.8112 131.585 56.2441 131.822C56.6771 132.055 57.0166 132.374 57.2627 132.779C57.5133 133.18 57.6501 133.636 57.6729 134.146L56.4697 134.146C56.4469 133.841 56.3604 133.565 56.21 133.319C56.0641 133.073 55.8636 132.877 55.6084 132.731C55.3577 132.581 55.0638 132.506 54.7266 132.506C54.3392 132.506 54.0133 132.583 53.749 132.738C53.4893 132.889 53.2819 133.094 53.127 133.354C52.9766 133.609 52.8672 133.894 52.7988 134.208C52.735 134.518 52.7031 134.835 52.7031 135.158L52.7031 135.445C52.7031 135.769 52.735 136.088 52.7988 136.402C52.8626 136.717 52.9697 137.002 53.1201 137.257C53.2751 137.512 53.4824 137.717 53.7422 137.872C54.0065 138.022 54.3346 138.098 54.7266 138.098ZM63.4561 137.735L63.4561 133.928C63.4561 133.636 63.3968 133.383 63.2783 133.169C63.1644 132.95 62.9912 132.782 62.7588 132.663C62.5264 132.545 62.2393 132.485 61.8975 132.485C61.5785 132.485 61.2982 132.54 61.0566 132.649C60.8197 132.759 60.6328 132.902 60.4961 133.08C60.3639 133.258 60.2979 133.449 60.2979 133.654L59.0332 133.654C59.0332 133.39 59.1016 133.128 59.2383 132.868C59.375 132.608 59.571 132.374 59.8262 132.164C60.0859 131.95 60.3958 131.781 60.7559 131.658C61.1204 131.531 61.526 131.467 61.9727 131.467C62.5104 131.467 62.9844 131.558 63.3945 131.74C63.8092 131.923 64.1328 132.198 64.3652 132.567C64.6022 132.932 64.7207 133.39 64.7207 133.941L64.7207 137.387C64.7207 137.633 64.7412 137.895 64.7822 138.173C64.8278 138.451 64.8939 138.69 64.9805 138.891L64.9805 139L63.6611 139C63.5973 138.854 63.5472 138.66 63.5107 138.419C63.4743 138.173 63.4561 137.945 63.4561 137.735ZM63.6748 134.516L63.6885 135.404L62.4102 135.404C62.0501 135.404 61.7288 135.434 61.4463 135.493C61.1637 135.548 60.9268 135.632 60.7354 135.746C60.5439 135.86 60.3981 136.004 60.2979 136.177C60.1976 136.345 60.1475 136.544 60.1475 136.771C60.1475 137.004 60.1999 137.216 60.3047 137.407C60.4095 137.599 60.5667 137.751 60.7764 137.865C60.9906 137.975 61.2526 138.029 61.5625 138.029C61.9499 138.029 62.2917 137.947 62.5879 137.783C62.8841 137.619 63.1188 137.419 63.292 137.182C63.4697 136.945 63.5654 136.715 63.5791 136.491L64.1191 137.1C64.0872 137.291 64.0007 137.503 63.8594 137.735C63.7181 137.968 63.529 138.191 63.292 138.405C63.0596 138.615 62.7816 138.79 62.458 138.932C62.139 139.068 61.779 139.137 61.3779 139.137C60.8766 139.137 60.4368 139.039 60.0586 138.843C59.6849 138.647 59.3932 138.385 59.1836 138.057C58.9785 137.724 58.876 137.353 58.876 136.942C58.876 136.546 58.9535 136.197 59.1084 135.896C59.2633 135.591 59.4867 135.338 59.7783 135.138C60.07 134.933 60.4209 134.778 60.8311 134.673C61.2412 134.568 61.6992 134.516 62.2051 134.516L63.6748 134.516ZM69.8066 131.604L69.8066 132.574L65.8076 132.574L65.8076 131.604L69.8066 131.604ZM67.1611 129.806L68.4258 129.806L68.4258 137.168C68.4258 137.419 68.4645 137.608 68.542 137.735C68.6195 137.863 68.7197 137.947 68.8428 137.988C68.9658 138.029 69.098 138.05 69.2393 138.05C69.3441 138.05 69.4535 138.041 69.5674 138.022C69.6859 138 69.7747 137.981 69.834 137.968L69.8408 139C69.7406 139.032 69.6084 139.062 69.4443 139.089C69.2848 139.121 69.0911 139.137 68.8633 139.137C68.5534 139.137 68.2686 139.075 68.0088 138.952C67.749 138.829 67.5417 138.624 67.3867 138.337C67.2363 138.045 67.1611 137.653 67.1611 137.161L67.1611 129.806ZM72.6641 131.604L72.6641 139L71.3926 139L71.3926 131.604L72.6641 131.604ZM71.2969 129.642C71.2969 129.437 71.3584 129.263 71.4814 129.122C71.609 128.981 71.7959 128.91 72.042 128.91C72.2835 128.91 72.4681 128.981 72.5957 129.122C72.7279 129.263 72.7939 129.437 72.7939 129.642C72.7939 129.838 72.7279 130.006 72.5957 130.147C72.4681 130.284 72.2835 130.353 72.042 130.353C71.7959 130.353 71.609 130.284 71.4814 130.147C71.3584 130.006 71.2969 129.838 71.2969 129.642ZM76.9434 137.858L78.9668 131.604L80.2588 131.604L77.5996 139L76.752 139L76.9434 137.858ZM75.2549 131.604L77.3398 137.893L77.4834 139L76.6357 139L73.9561 131.604L75.2549 131.604ZM81.0313 135.384L81.0313 135.227C81.0313 134.693 81.1087 134.199 81.2637 133.743C81.4186 133.283 81.6419 132.884 81.9336 132.547C82.2253 132.205 82.5785 131.941 82.9932 131.754C83.4079 131.563 83.8727 131.467 84.3877 131.467C84.9072 131.467 85.3743 131.563 85.7891 131.754C86.2083 131.941 86.5638 132.205 86.8555 132.547C87.1517 132.884 87.3773 133.283 87.5322 133.743C87.6872 134.199 87.7646 134.693 87.7646 135.227L87.7646 135.384C87.7646 135.917 87.6872 136.411 87.5322 136.867C87.3773 137.323 87.1517 137.722 86.8555 138.063C86.5638 138.401 86.2106 138.665 85.7959 138.856C85.3857 139.043 84.9209 139.137 84.4014 139.137C83.8818 139.137 83.4147 139.043 83 138.856C82.5853 138.665 82.2298 138.401 81.9336 138.063C81.6419 137.722 81.4186 137.323 81.2637 136.867C81.1087 136.411 81.0313 135.917 81.0313 135.384ZM82.2959 135.227L82.2959 135.384C82.2959 135.753 82.3392 136.102 82.4258 136.43C82.5124 136.753 82.6423 137.04 82.8154 137.291C82.9932 137.542 83.2142 137.74 83.4785 137.886C83.7428 138.027 84.0505 138.098 84.4014 138.098C84.7477 138.098 85.0508 138.027 85.3105 137.886C85.5749 137.74 85.7936 137.542 85.9668 137.291C86.14 137.04 86.2699 136.753 86.3564 136.43C86.4476 136.102 86.4932 135.753 86.4932 135.384L86.4932 135.227C86.4932 134.862 86.4476 134.518 86.3564 134.194C86.2699 133.866 86.1377 133.577 85.96 133.326C85.7868 133.071 85.568 132.87 85.3037 132.725C85.0439 132.579 84.7386 132.506 84.3877 132.506C84.0413 132.506 83.736 132.579 83.4717 132.725C83.2119 132.87 82.9932 133.071 82.8154 133.326C82.6423 133.577 82.5124 133.866 82.4258 134.194C82.3392 134.518 82.2959 134.862 82.2959 135.227ZM93.6572 137.038C93.6572 136.856 93.6162 136.687 93.5342 136.532C93.4567 136.373 93.2949 136.229 93.0488 136.102C92.8073 135.969 92.4427 135.855 91.9551 135.76C91.5449 135.673 91.1735 135.571 90.8408 135.452C90.5127 135.334 90.2324 135.19 90 135.021C89.7721 134.853 89.5967 134.655 89.4736 134.427C89.3506 134.199 89.2891 133.932 89.2891 133.627C89.2891 133.335 89.3529 133.06 89.4805 132.8C89.6126 132.54 89.7972 132.31 90.0342 132.109C90.2757 131.909 90.5651 131.752 90.9023 131.638C91.2396 131.524 91.6156 131.467 92.0303 131.467C92.6227 131.467 93.1286 131.572 93.5479 131.781C93.9671 131.991 94.2884 132.271 94.5117 132.622C94.735 132.968 94.8467 133.354 94.8467 133.777L93.582 133.777C93.582 133.572 93.5205 133.374 93.3975 133.183C93.279 132.987 93.1035 132.825 92.8711 132.697C92.6432 132.57 92.363 132.506 92.0303 132.506C91.6794 132.506 91.3945 132.561 91.1758 132.67C90.9616 132.775 90.8044 132.909 90.7041 133.073C90.6084 133.237 90.5605 133.41 90.5605 133.593C90.5605 133.729 90.5833 133.853 90.6289 133.962C90.679 134.067 90.7656 134.165 90.8887 134.256C91.0117 134.342 91.1849 134.424 91.4082 134.502C91.6315 134.579 91.9163 134.657 92.2627 134.734C92.8688 134.871 93.3678 135.035 93.7598 135.227C94.1517 135.418 94.4434 135.653 94.6348 135.931C94.8262 136.209 94.9219 136.546 94.9219 136.942C94.9219 137.266 94.8535 137.562 94.7168 137.831C94.5846 138.1 94.391 138.332 94.1357 138.528C93.8851 138.72 93.5843 138.87 93.2334 138.979C92.887 139.084 92.4974 139.137 92.0645 139.137C91.4128 139.137 90.8613 139.021 90.4102 138.788C89.959 138.556 89.6172 138.255 89.3848 137.886C89.1523 137.517 89.0361 137.127 89.0361 136.717L90.3076 136.717C90.3258 137.063 90.4261 137.339 90.6084 137.544C90.7907 137.744 91.014 137.888 91.2783 137.975C91.5426 138.057 91.8047 138.098 92.0645 138.098C92.4108 138.098 92.7002 138.052 92.9326 137.961C93.1696 137.87 93.3496 137.744 93.4727 137.585C93.5957 137.425 93.6572 137.243 93.6572 137.038ZM104.718 137.564L104.718 128.5L105.989 128.5L105.989 139L104.827 139L104.718 137.564ZM99.7412 135.384L99.7412 135.24C99.7412 134.675 99.8096 134.162 99.9463 133.702C100.088 133.237 100.286 132.839 100.541 132.506C100.801 132.173 101.108 131.918 101.464 131.74C101.824 131.558 102.225 131.467 102.667 131.467C103.132 131.467 103.537 131.549 103.884 131.713C104.235 131.872 104.531 132.107 104.772 132.417C105.019 132.722 105.212 133.091 105.354 133.524C105.495 133.957 105.593 134.447 105.647 134.994L105.647 135.623C105.597 136.165 105.499 136.653 105.354 137.086C105.212 137.519 105.019 137.888 104.772 138.193C104.531 138.499 104.235 138.733 103.884 138.897C103.533 139.057 103.123 139.137 102.653 139.137C102.22 139.137 101.824 139.043 101.464 138.856C101.108 138.67 100.801 138.408 100.541 138.07C100.286 137.733 100.088 137.337 99.9463 136.881C99.8096 136.421 99.7412 135.922 99.7412 135.384ZM101.013 135.24L101.013 135.384C101.013 135.753 101.049 136.099 101.122 136.423C101.2 136.746 101.318 137.031 101.478 137.277C101.637 137.523 101.84 137.717 102.086 137.858C102.332 137.995 102.626 138.063 102.968 138.063C103.387 138.063 103.731 137.975 104 137.797C104.273 137.619 104.492 137.384 104.656 137.093C104.82 136.801 104.948 136.484 105.039 136.143L105.039 134.495C104.984 134.244 104.905 134.003 104.8 133.771C104.7 133.534 104.567 133.324 104.403 133.142C104.244 132.955 104.046 132.807 103.809 132.697C103.576 132.588 103.3 132.533 102.981 132.533C102.635 132.533 102.337 132.606 102.086 132.752C101.84 132.893 101.637 133.089 101.478 133.34C101.318 133.586 101.2 133.873 101.122 134.201C101.049 134.525 101.013 134.871 101.013 135.24ZM109.332 131.604L109.332 139L108.061 139L108.061 131.604L109.332 131.604ZM107.965 129.642C107.965 129.437 108.026 129.263 108.149 129.122C108.277 128.981 108.464 128.91 108.71 128.91C108.951 128.91 109.136 128.981 109.264 129.122C109.396 129.263 109.462 129.437 109.462 129.642C109.462 129.838 109.396 130.006 109.264 130.147C109.136 130.284 108.951 130.353 108.71 130.353C108.464 130.353 108.277 130.284 108.149 130.147C108.026 130.006 107.965 129.838 107.965 129.642ZM115.669 137.038C115.669 136.856 115.628 136.687 115.546 136.532C115.468 136.373 115.307 136.229 115.061 136.102C114.819 135.969 114.454 135.855 113.967 135.76C113.557 135.673 113.185 135.571 112.853 135.452C112.524 135.334 112.244 135.19 112.012 135.021C111.784 134.853 111.608 134.655 111.485 134.427C111.362 134.199 111.301 133.932 111.301 133.627C111.301 133.335 111.365 133.06 111.492 132.8C111.624 132.54 111.809 132.31 112.046 132.109C112.287 131.909 112.577 131.752 112.914 131.638C113.251 131.524 113.627 131.467 114.042 131.467C114.634 131.467 115.14 131.572 115.56 131.781C115.979 131.991 116.3 132.271 116.523 132.622C116.747 132.968 116.858 133.354 116.858 133.777L115.594 133.777C115.594 133.572 115.532 133.374 115.409 133.183C115.291 132.987 115.115 132.825 114.883 132.697C114.655 132.57 114.375 132.506 114.042 132.506C113.691 132.506 113.406 132.561 113.188 132.67C112.973 132.775 112.816 132.909 112.716 133.073C112.62 133.237 112.572 133.41 112.572 133.593C112.572 133.729 112.595 133.853 112.641 133.962C112.691 134.067 112.777 134.165 112.9 134.256C113.023 134.342 113.197 134.424 113.42 134.502C113.643 134.579 113.928 134.657 114.274 134.734C114.881 134.871 115.38 135.035 115.771 135.227C116.163 135.418 116.455 135.653 116.646 135.931C116.838 136.209 116.934 136.546 116.934 136.942C116.934 137.266 116.865 137.562 116.729 137.831C116.596 138.1 116.403 138.332 116.147 138.528C115.897 138.72 115.596 138.87 115.245 138.979C114.899 139.084 114.509 139.137 114.076 139.137C113.424 139.137 112.873 139.021 112.422 138.788C111.971 138.556 111.629 138.255 111.396 137.886C111.164 137.517 111.048 137.127 111.048 136.717L112.319 136.717C112.338 137.063 112.438 137.339 112.62 137.544C112.802 137.744 113.026 137.888 113.29 137.975C113.554 138.057 113.816 138.098 114.076 138.098C114.423 138.098 114.712 138.052 114.944 137.961C115.181 137.87 115.361 137.744 115.484 137.585C115.607 137.425 115.669 137.243 115.669 137.038ZM119.859 133.025L119.859 141.844L118.588 141.844L118.588 131.604L119.75 131.604L119.859 133.025ZM124.843 135.24L124.843 135.384C124.843 135.922 124.779 136.421 124.651 136.881C124.524 137.337 124.337 137.733 124.091 138.07C123.849 138.408 123.551 138.67 123.195 138.856C122.84 139.043 122.432 139.137 121.972 139.137C121.502 139.137 121.088 139.059 120.728 138.904C120.368 138.749 120.062 138.524 119.812 138.228C119.561 137.931 119.36 137.576 119.21 137.161C119.064 136.746 118.964 136.279 118.909 135.76L118.909 134.994C118.964 134.447 119.066 133.957 119.217 133.524C119.367 133.091 119.565 132.722 119.812 132.417C120.062 132.107 120.365 131.872 120.721 131.713C121.076 131.549 121.486 131.467 121.951 131.467C122.416 131.467 122.828 131.558 123.188 131.74C123.549 131.918 123.852 132.173 124.098 132.506C124.344 132.839 124.528 133.237 124.651 133.702C124.779 134.162 124.843 134.675 124.843 135.24ZM123.571 135.384L123.571 135.24C123.571 134.871 123.533 134.525 123.455 134.201C123.378 133.873 123.257 133.586 123.093 133.34C122.933 133.089 122.728 132.893 122.478 132.752C122.227 132.606 121.928 132.533 121.582 132.533C121.263 132.533 120.985 132.588 120.748 132.697C120.516 132.807 120.317 132.955 120.153 133.142C119.989 133.324 119.855 133.534 119.75 133.771C119.65 134.003 119.575 134.244 119.524 134.495L119.524 136.266C119.616 136.585 119.743 136.885 119.907 137.168C120.071 137.446 120.29 137.672 120.563 137.845C120.837 138.013 121.181 138.098 121.596 138.098C121.938 138.098 122.231 138.027 122.478 137.886C122.728 137.74 122.933 137.542 123.093 137.291C123.257 137.04 123.378 136.753 123.455 136.43C123.533 136.102 123.571 135.753 123.571 135.384ZM126.121 135.384L126.121 135.227C126.121 134.693 126.199 134.199 126.354 133.743C126.508 133.283 126.732 132.884 127.023 132.547C127.315 132.205 127.668 131.941 128.083 131.754C128.498 131.563 128.963 131.467 129.478 131.467C129.997 131.467 130.464 131.563 130.879 131.754C131.298 131.941 131.654 132.205 131.945 132.547C132.242 132.884 132.467 133.283 132.622 133.743C132.777 134.199 132.854 134.693 132.854 135.227L132.854 135.384C132.854 135.917 132.777 136.411 132.622 136.867C132.467 137.323 132.242 137.722 131.945 138.063C131.654 138.401 131.3 138.665 130.886 138.856C130.476 139.043 130.011 139.137 129.491 139.137C128.972 139.137 128.505 139.043 128.09 138.856C127.675 138.665 127.32 138.401 127.023 138.063C126.732 137.722 126.508 137.323 126.354 136.867C126.199 136.411 126.121 135.917 126.121 135.384ZM127.386 135.227L127.386 135.384C127.386 135.753 127.429 136.102 127.516 136.43C127.602 136.753 127.732 137.04 127.905 137.291C128.083 137.542 128.304 137.74 128.568 137.886C128.833 138.027 129.14 138.098 129.491 138.098C129.838 138.098 130.141 138.027 130.4 137.886C130.665 137.74 130.883 137.542 131.057 137.291C131.23 137.04 131.36 136.753 131.446 136.43C131.537 136.102 131.583 135.753 131.583 135.384L131.583 135.227C131.583 134.862 131.537 134.518 131.446 134.194C131.36 133.866 131.228 133.577 131.05 133.326C130.877 133.071 130.658 132.87 130.394 132.725C130.134 132.579 129.828 132.506 129.478 132.506C129.131 132.506 128.826 132.579 128.562 132.725C128.302 132.87 128.083 133.071 127.905 133.326C127.732 133.577 127.602 133.866 127.516 134.194C127.429 134.518 127.386 134.862 127.386 135.227ZM135.705 133.183L135.705 139L134.44 139L134.44 131.604L135.637 131.604L135.705 133.183ZM135.404 135.021L134.878 135.001C134.882 134.495 134.958 134.028 135.104 133.6C135.249 133.167 135.454 132.791 135.719 132.472C135.983 132.153 136.298 131.907 136.662 131.733C137.031 131.556 137.439 131.467 137.886 131.467C138.25 131.467 138.578 131.517 138.87 131.617C139.162 131.713 139.41 131.868 139.615 132.082C139.825 132.296 139.984 132.574 140.094 132.916C140.203 133.253 140.258 133.666 140.258 134.153L140.258 139L138.986 139L138.986 134.14C138.986 133.752 138.929 133.442 138.815 133.21C138.701 132.973 138.535 132.802 138.316 132.697C138.098 132.588 137.829 132.533 137.51 132.533C137.195 132.533 136.908 132.599 136.648 132.731C136.393 132.864 136.172 133.046 135.985 133.278C135.803 133.511 135.66 133.777 135.555 134.078C135.454 134.374 135.404 134.689 135.404 135.021ZM143.546 131.604L143.546 139L142.281 139L142.281 131.604L143.546 131.604ZM142.24 130.523L143.566 128.514L145.091 128.514L143.259 130.523L142.24 130.523ZM147.9 137.858L149.924 131.604L151.216 131.604L148.557 139L147.709 139L147.9 137.858ZM146.212 131.604L148.297 137.893L148.44 139L147.593 139L144.913 131.604L146.212 131.604ZM155.406 139.137C154.891 139.137 154.424 139.05 154.005 138.877C153.59 138.699 153.232 138.451 152.932 138.132C152.635 137.813 152.408 137.435 152.248 136.997C152.089 136.56 152.009 136.081 152.009 135.562L152.009 135.274C152.009 134.673 152.098 134.137 152.275 133.668C152.453 133.194 152.695 132.793 153 132.465C153.305 132.137 153.652 131.888 154.039 131.72C154.426 131.551 154.827 131.467 155.242 131.467C155.771 131.467 156.227 131.558 156.609 131.74C156.997 131.923 157.313 132.178 157.56 132.506C157.806 132.829 157.988 133.212 158.106 133.654C158.225 134.092 158.284 134.57 158.284 135.09L158.284 135.657L152.761 135.657L152.761 134.625L157.02 134.625L157.02 134.529C157.001 134.201 156.933 133.882 156.814 133.572C156.701 133.262 156.518 133.007 156.268 132.807C156.017 132.606 155.675 132.506 155.242 132.506C154.955 132.506 154.691 132.567 154.449 132.69C154.208 132.809 154 132.987 153.827 133.224C153.654 133.461 153.52 133.75 153.424 134.092C153.328 134.434 153.28 134.828 153.28 135.274L153.28 135.562C153.28 135.912 153.328 136.243 153.424 136.553C153.524 136.858 153.668 137.127 153.854 137.359C154.046 137.592 154.276 137.774 154.545 137.906C154.818 138.038 155.128 138.104 155.475 138.104C155.921 138.104 156.299 138.013 156.609 137.831C156.919 137.649 157.19 137.405 157.423 137.1L158.188 137.708C158.029 137.95 157.826 138.18 157.58 138.398C157.334 138.617 157.031 138.795 156.671 138.932C156.315 139.068 155.894 139.137 155.406 139.137ZM161.135 131.604L161.135 139L159.863 139L159.863 131.604L161.135 131.604ZM159.768 129.642C159.768 129.437 159.829 129.263 159.952 129.122C160.08 128.981 160.267 128.91 160.513 128.91C160.754 128.91 160.939 128.981 161.066 129.122C161.199 129.263 161.265 129.437 161.265 129.642C161.265 129.838 161.199 130.006 161.066 130.147C160.939 130.284 160.754 130.353 160.513 130.353C160.267 130.353 160.08 130.284 159.952 130.147C159.829 130.006 159.768 129.838 159.768 129.642ZM167.472 137.038C167.472 136.856 167.431 136.687 167.349 136.532C167.271 136.373 167.109 136.229 166.863 136.102C166.622 135.969 166.257 135.855 165.77 135.76C165.359 135.673 164.988 135.571 164.655 135.452C164.327 135.334 164.047 135.19 163.814 135.021C163.587 134.853 163.411 134.655 163.288 134.427C163.165 134.199 163.104 133.932 163.104 133.627C163.104 133.335 163.167 133.06 163.295 132.8C163.427 132.54 163.612 132.31 163.849 132.109C164.09 131.909 164.38 131.752 164.717 131.638C165.054 131.524 165.43 131.467 165.845 131.467C166.437 131.467 166.943 131.572 167.362 131.781C167.782 131.991 168.103 132.271 168.326 132.622C168.549 132.968 168.661 133.354 168.661 133.777L167.396 133.777C167.396 133.572 167.335 133.374 167.212 133.183C167.093 132.987 166.918 132.825 166.686 132.697C166.458 132.57 166.177 132.506 165.845 132.506C165.494 132.506 165.209 132.561 164.99 132.67C164.776 132.775 164.619 132.909 164.519 133.073C164.423 133.237 164.375 133.41 164.375 133.593C164.375 133.729 164.398 133.853 164.443 133.962C164.493 134.067 164.58 134.165 164.703 134.256C164.826 134.342 164.999 134.424 165.223 134.502C165.446 134.579 165.731 134.657 166.077 134.734C166.683 134.871 167.182 135.035 167.574 135.227C167.966 135.418 168.258 135.653 168.449 135.931C168.641 136.209 168.736 136.546 168.736 136.942C168.736 137.266 168.668 137.562 168.531 137.831C168.399 138.1 168.205 138.332 167.95 138.528C167.7 138.72 167.399 138.87 167.048 138.979C166.701 139.084 166.312 139.137 165.879 139.137C165.227 139.137 164.676 139.021 164.225 138.788C163.773 138.556 163.432 138.255 163.199 137.886C162.967 137.517 162.851 137.127 162.851 136.717L164.122 136.717C164.14 137.063 164.241 137.339 164.423 137.544C164.605 137.744 164.828 137.888 165.093 137.975C165.357 138.057 165.619 138.098 165.879 138.098C166.225 138.098 166.515 138.052 166.747 137.961C166.984 137.87 167.164 137.744 167.287 137.585C167.41 137.425 167.472 137.243 167.472 137.038Z" fill="white"/>
</g>
</g>
<defs>
<filter id="filter0_d_131_2542" x="0" y="0" width="220" height="194" filterUnits="userSpaceOnUse" color-interpolation-filters="sRGB">
<feFlood flood-opacity="0" result="BackgroundImageFix"/>
<feColorMatrix in="SourceAlpha" type="matrix" values="0 0 0 0 0 0 0 0 0 0 0 0 0 0 0 0 0 0 127 0" result="hardAlpha"/>
<feMorphology radius="15" operator="erode" in="SourceAlpha" result="effect1_dropShadow_131_2542"/>
<feOffset dy="25"/>
<feGaussianBlur stdDeviation="15"/>
<feComposite in2="hardAlpha" operator="out"/>
<feColorMatrix type="matrix" values="0 0 0 0 0.113725 0 0 0 0 0.890196 0 0 0 0 0.839216 0 0 0 0.5 0"/>
<feBlend mode="normal" in2="BackgroundImageFix" result="effect1_dropShadow_131_2542"/>
<feBlend mode="normal" in="SourceGraphic" in2="effect1_dropShadow_131_2542" result="shape"/>
</filter>
<linearGradient id="paint0_linear_131_2542" x1="110" y1="-3.68996e-06" x2="110" y2="154" gradientUnits="userSpaceOnUse">
<stop stop-color="#1DE5D6"/>
<stop offset="1" stop-color="#309FE5"/>
</linearGradient>
<clipPath id="clip0_131_2542">
<path d="M141 -2.48587e-06C176.346 -1.11296e-06 205 28.6538 205 64L205 146C205 150.418 201.418 154 197 154L23 154C18.5817 154 15 150.418 15 146L15 8C15 3.58172 18.5817 -7.2408e-06 23 -7.06919e-06L141 -2.48587e-06Z" fill="white"/>
</clipPath>
</defs>
</svg>
