<svg width="950" height="28" viewBox="0 0 950 28" fill="none" xmlns="http://www.w3.org/2000/svg">
<path d="M5.03906 4.9375V22H1.52344V4.9375H5.03906ZM11.8359 12.2266V14.9688H4.07812V12.2266H11.8359ZM12.6562 4.9375V7.69141H4.07812V4.9375H12.6562ZM18.0469 9.32031V22H14.6602V9.32031H18.0469ZM14.4492 6.01562C14.4492 5.52344 14.6211 5.11719 14.9648 4.79688C15.3086 4.47656 15.7695 4.31641 16.3477 4.31641C16.918 4.31641 17.375 4.47656 17.7188 4.79688C18.0703 5.11719 18.2461 5.52344 18.2461 6.01562C18.2461 6.50781 18.0703 6.91406 17.7188 7.23438C17.375 7.55469 16.918 7.71484 16.3477 7.71484C15.7695 7.71484 15.3086 7.55469 14.9648 7.23438C14.6211 6.91406 14.4492 6.50781 14.4492 6.01562ZM24.3984 4V22H21.0117V4H24.3984ZM30.5625 11.9453V22H27.1758V9.32031H30.3516L30.5625 11.9453ZM30.0938 15.2148H29.1562C29.1562 14.332 29.2617 13.5195 29.4727 12.7773C29.6914 12.0273 30.0078 11.3789 30.4219 10.832C30.8438 10.2773 31.3633 9.84766 31.9805 9.54297C32.5977 9.23828 33.3125 9.08594 34.125 9.08594C34.6875 9.08594 35.2031 9.17188 35.6719 9.34375C36.1406 9.50781 36.543 9.76953 36.8789 10.1289C37.2227 10.4805 37.4883 10.9414 37.6758 11.5117C37.8633 12.0742 37.957 12.75 37.957 13.5391V22H34.582V13.9141C34.582 13.3359 34.5039 12.8906 34.3477 12.5781C34.1914 12.2656 33.9688 12.0469 33.6797 11.9219C33.3984 11.7969 33.0586 11.7344 32.6602 11.7344C32.2227 11.7344 31.8398 11.8242 31.5117 12.0039C31.1914 12.1836 30.9258 12.4336 30.7148 12.7539C30.5039 13.0664 30.3477 13.4336 30.2461 13.8555C30.1445 14.2773 30.0938 14.7305 30.0938 15.2148ZM37.6406 14.8281L36.4336 14.9805C36.4336 14.1523 36.5352 13.3828 36.7383 12.6719C36.9492 11.9609 37.2578 11.3359 37.6641 10.7969C38.0781 10.2578 38.5898 9.83984 39.1992 9.54297C39.8086 9.23828 40.5117 9.08594 41.3086 9.08594C41.918 9.08594 42.4727 9.17578 42.9727 9.35547C43.4727 9.52734 43.8984 9.80469 44.25 10.1875C44.6094 10.5625 44.8828 11.0547 45.0703 11.6641C45.2656 12.2734 45.3633 13.0195 45.3633 13.9023V22H41.9766V13.9023C41.9766 13.3164 41.8984 12.8711 41.7422 12.5664C41.5938 12.2539 41.375 12.0391 41.0859 11.9219C40.8047 11.7969 40.4688 11.7344 40.0781 11.7344C39.6719 11.7344 39.3164 11.8164 39.0117 11.9805C38.707 12.1367 38.4531 12.3555 38.25 12.6367C38.0469 12.918 37.8945 13.2461 37.793 13.6211C37.6914 13.9883 37.6406 14.3906 37.6406 14.8281ZM53.8125 22.2344C52.8281 22.2344 51.9453 22.0781 51.1641 21.7656C50.3828 21.4453 49.7188 21.0039 49.1719 20.4414C48.6328 19.8789 48.2188 19.2266 47.9297 18.4844C47.6406 17.7344 47.4961 16.9375 47.4961 16.0938V15.625C47.4961 14.6641 47.6328 13.7852 47.9062 12.9883C48.1797 12.1914 48.5703 11.5 49.0781 10.9141C49.5938 10.3281 50.2188 9.87891 50.9531 9.56641C51.6875 9.24609 52.5156 9.08594 53.4375 9.08594C54.3359 9.08594 55.1328 9.23438 55.8281 9.53125C56.5234 9.82812 57.1055 10.25 57.5742 10.7969C58.0508 11.3438 58.4102 12 58.6523 12.7656C58.8945 13.5234 59.0156 14.3672 59.0156 15.2969V16.7031H48.9375V14.4531H55.6992V14.1953C55.6992 13.7266 55.6133 13.3086 55.4414 12.9414C55.2773 12.5664 55.0273 12.2695 54.6914 12.0508C54.3555 11.832 53.9258 11.7227 53.4023 11.7227C52.957 11.7227 52.5742 11.8203 52.2539 12.0156C51.9336 12.2109 51.6719 12.4844 51.4688 12.8359C51.2734 13.1875 51.125 13.6016 51.0234 14.0781C50.9297 14.5469 50.8828 15.0625 50.8828 15.625V16.0938C50.8828 16.6016 50.9531 17.0703 51.0938 17.5C51.2422 17.9297 51.4492 18.3008 51.7148 18.6133C51.9883 18.9258 52.3164 19.168 52.6992 19.3398C53.0898 19.5117 53.5312 19.5977 54.0234 19.5977C54.6328 19.5977 55.1992 19.4805 55.7227 19.2461C56.2539 19.0039 56.7109 18.6406 57.0938 18.1562L58.7344 19.9375C58.4688 20.3203 58.1055 20.6875 57.6445 21.0391C57.1914 21.3906 56.6445 21.6797 56.0039 21.9062C55.3633 22.125 54.6328 22.2344 53.8125 22.2344ZM67.793 18.4961C67.793 18.2539 67.7227 18.0352 67.582 17.8398C67.4414 17.6445 67.1797 17.4648 66.7969 17.3008C66.4219 17.1289 65.8789 16.9727 65.168 16.832C64.5273 16.6914 63.9297 16.5156 63.375 16.3047C62.8281 16.0859 62.3516 15.8242 61.9453 15.5195C61.5469 15.2148 61.2344 14.8555 61.0078 14.4414C60.7812 14.0195 60.668 13.5391 60.668 13C60.668 12.4688 60.7812 11.9688 61.0078 11.5C61.2422 11.0312 61.5742 10.6172 62.0039 10.2578C62.4414 9.89062 62.9727 9.60547 63.5977 9.40234C64.2305 9.19141 64.9414 9.08594 65.7305 9.08594C66.832 9.08594 67.7773 9.26172 68.5664 9.61328C69.3633 9.96484 69.9727 10.4492 70.3945 11.0664C70.8242 11.6758 71.0391 12.3711 71.0391 13.1523H67.6641C67.6641 12.8242 67.5938 12.5312 67.4531 12.2734C67.3203 12.0078 67.1094 11.8008 66.8203 11.6523C66.5391 11.4961 66.1719 11.418 65.7188 11.418C65.3438 11.418 65.0195 11.4844 64.7461 11.6172C64.4727 11.7422 64.2617 11.9141 64.1133 12.1328C63.9727 12.3438 63.9023 12.5781 63.9023 12.8359C63.9023 13.0312 63.9414 13.207 64.0195 13.3633C64.1055 13.5117 64.2422 13.6484 64.4297 13.7734C64.6172 13.8984 64.8594 14.0156 65.1562 14.125C65.4609 14.2266 65.8359 14.3203 66.2812 14.4062C67.1953 14.5938 68.0117 14.8398 68.7305 15.1445C69.4492 15.4414 70.0195 15.8477 70.4414 16.3633C70.8633 16.8711 71.0742 17.5391 71.0742 18.3672C71.0742 18.9297 70.9492 19.4453 70.6992 19.9141C70.4492 20.3828 70.0898 20.793 69.6211 21.1445C69.1523 21.4883 68.5898 21.7578 67.9336 21.9531C67.2852 22.1406 66.5547 22.2344 65.7422 22.2344C64.5625 22.2344 63.5625 22.0234 62.7422 21.6016C61.9297 21.1797 61.3125 20.6445 60.8906 19.9961C60.4766 19.3398 60.2695 18.668 60.2695 17.9805H63.4688C63.4844 18.4414 63.6016 18.8125 63.8203 19.0938C64.0469 19.375 64.332 19.5781 64.6758 19.7031C65.0273 19.8281 65.4062 19.8906 65.8125 19.8906C66.25 19.8906 66.6133 19.832 66.9023 19.7148C67.1914 19.5898 67.4102 19.4258 67.5586 19.2227C67.7148 19.0117 67.793 18.7695 67.793 18.4961Z" fill="white"/>
<path d="M876.423 17.1816L879.041 9.04688H880.935L877.366 19H876.088L876.423 17.1816ZM874.003 9.04688L876.601 17.1816L876.956 19H875.671L872.116 9.04688H874.003ZM884.845 19.1367C884.298 19.1367 883.803 19.0479 883.361 18.8701C882.924 18.6878 882.55 18.4349 882.24 18.1113C881.935 17.7878 881.7 17.4072 881.536 16.9697C881.372 16.5322 881.29 16.0605 881.29 15.5547V15.2812C881.29 14.7025 881.374 14.1784 881.543 13.709C881.712 13.2396 881.946 12.8385 882.247 12.5059C882.548 12.1686 882.903 11.9111 883.313 11.7334C883.724 11.5557 884.168 11.4668 884.646 11.4668C885.175 11.4668 885.638 11.5557 886.034 11.7334C886.431 11.9111 886.759 12.1618 887.019 12.4854C887.283 12.8044 887.479 13.1849 887.606 13.627C887.739 14.069 887.805 14.5566 887.805 15.0898V15.7939H882.09V14.6113H886.178V14.4814C886.169 14.1852 886.109 13.9072 886 13.6475C885.895 13.3877 885.733 13.1781 885.515 13.0186C885.296 12.859 885.004 12.7793 884.64 12.7793C884.366 12.7793 884.122 12.8385 883.908 12.957C883.699 13.071 883.523 13.2373 883.382 13.4561C883.241 13.6748 883.131 13.9391 883.054 14.249C882.981 14.5544 882.944 14.8984 882.944 15.2812V15.5547C882.944 15.8783 882.988 16.179 883.074 16.457C883.165 16.7305 883.298 16.9697 883.471 17.1748C883.644 17.3799 883.854 17.5417 884.1 17.6602C884.346 17.7741 884.626 17.8311 884.94 17.8311C885.337 17.8311 885.69 17.7513 886 17.5918C886.31 17.4323 886.579 17.2067 886.807 16.915L887.675 17.7559C887.515 17.9883 887.308 18.2116 887.053 18.4258C886.798 18.6354 886.485 18.8063 886.116 18.9385C885.752 19.0706 885.328 19.1367 884.845 19.1367ZM890.744 13.0117V19H889.097V11.6035H890.669L890.744 13.0117ZM893.007 11.5557L892.993 13.0869C892.893 13.0687 892.784 13.055 892.665 13.0459C892.551 13.0368 892.437 13.0322 892.323 13.0322C892.041 13.0322 891.792 13.0732 891.578 13.1553C891.364 13.2327 891.184 13.3467 891.038 13.4971C890.897 13.6429 890.787 13.8206 890.71 14.0303C890.632 14.2399 890.587 14.4746 890.573 14.7344L890.197 14.7617C890.197 14.2969 890.243 13.8662 890.334 13.4697C890.425 13.0732 890.562 12.7246 890.744 12.4238C890.931 12.123 891.163 11.8883 891.441 11.7197C891.724 11.5511 892.05 11.4668 892.419 11.4668C892.519 11.4668 892.626 11.4759 892.74 11.4941C892.859 11.5124 892.948 11.5329 893.007 11.5557ZM900.916 11.6035V12.8066H896.746V11.6035H900.916ZM897.949 9.79199H899.597V16.9561C899.597 17.1839 899.629 17.3594 899.692 17.4824C899.761 17.6009 899.854 17.6807 899.973 17.7217C900.091 17.7627 900.23 17.7832 900.39 17.7832C900.504 17.7832 900.613 17.7764 900.718 17.7627C900.823 17.749 900.907 17.7354 900.971 17.7217L900.978 18.9795C900.841 19.0205 900.681 19.057 900.499 19.0889C900.321 19.1208 900.116 19.1367 899.884 19.1367C899.506 19.1367 899.171 19.0706 898.879 18.9385C898.587 18.8018 898.359 18.5807 898.195 18.2754C898.031 17.9701 897.949 17.5645 897.949 17.0586V9.79199ZM901.709 15.3838V15.2266C901.709 14.6934 901.786 14.1989 901.941 13.7432C902.096 13.2829 902.32 12.8841 902.611 12.5469C902.908 12.2051 903.268 11.9408 903.691 11.7539C904.12 11.5625 904.603 11.4668 905.141 11.4668C905.683 11.4668 906.166 11.5625 906.59 11.7539C907.018 11.9408 907.381 12.2051 907.677 12.5469C907.973 12.8841 908.199 13.2829 908.354 13.7432C908.508 14.1989 908.586 14.6934 908.586 15.2266V15.3838C908.586 15.917 908.508 16.4115 908.354 16.8672C908.199 17.3229 907.973 17.7217 907.677 18.0635C907.381 18.4007 907.021 18.665 906.597 18.8564C906.173 19.0433 905.692 19.1367 905.154 19.1367C904.612 19.1367 904.127 19.0433 903.698 18.8564C903.274 18.665 902.914 18.4007 902.618 18.0635C902.322 17.7217 902.096 17.3229 901.941 16.8672C901.786 16.4115 901.709 15.917 901.709 15.3838ZM903.356 15.2266V15.3838C903.356 15.7165 903.391 16.0309 903.459 16.3271C903.527 16.6234 903.634 16.8831 903.78 17.1064C903.926 17.3298 904.113 17.5052 904.341 17.6328C904.569 17.7604 904.84 17.8242 905.154 17.8242C905.46 17.8242 905.724 17.7604 905.947 17.6328C906.175 17.5052 906.362 17.3298 906.508 17.1064C906.654 16.8831 906.761 16.6234 906.829 16.3271C906.902 16.0309 906.938 15.7165 906.938 15.3838V15.2266C906.938 14.8984 906.902 14.5885 906.829 14.2969C906.761 14.0007 906.651 13.7386 906.501 13.5107C906.355 13.2829 906.168 13.1051 905.94 12.9775C905.717 12.8454 905.451 12.7793 905.141 12.7793C904.831 12.7793 904.562 12.8454 904.334 12.9775C904.111 13.1051 903.926 13.2829 903.78 13.5107C903.634 13.7386 903.527 14.0007 903.459 14.2969C903.391 14.5885 903.356 14.8984 903.356 15.2266ZM914.479 17.4688V8.5H916.133V19H914.636L914.479 17.4688ZM909.666 15.3838V15.2402C909.666 14.6797 909.732 14.1693 909.864 13.709C909.996 13.2441 910.188 12.8454 910.438 12.5127C910.689 12.1755 910.994 11.918 911.354 11.7402C911.715 11.5579 912.12 11.4668 912.571 11.4668C913.018 11.4668 913.41 11.5534 913.747 11.7266C914.084 11.8997 914.371 12.1481 914.608 12.4717C914.845 12.7907 915.035 13.1735 915.176 13.6201C915.317 14.0622 915.417 14.5544 915.477 15.0967V15.5547C915.417 16.0833 915.317 16.5664 915.176 17.0039C915.035 17.4414 914.845 17.8197 914.608 18.1387C914.371 18.4577 914.082 18.7038 913.74 18.877C913.403 19.0501 913.009 19.1367 912.558 19.1367C912.111 19.1367 911.708 19.0433 911.348 18.8564C910.992 18.6696 910.689 18.4076 910.438 18.0703C910.188 17.7331 909.996 17.3366 909.864 16.8809C909.732 16.4206 909.666 15.9215 909.666 15.3838ZM911.313 15.2402V15.3838C911.313 15.721 911.343 16.0355 911.402 16.3271C911.466 16.6188 911.564 16.8763 911.696 17.0996C911.828 17.3184 911.999 17.4915 912.209 17.6191C912.423 17.7422 912.678 17.8037 912.975 17.8037C913.348 17.8037 913.656 17.7217 913.897 17.5576C914.139 17.3936 914.328 17.1725 914.465 16.8945C914.606 16.612 914.702 16.2975 914.752 15.9512V14.7139C914.725 14.445 914.668 14.1943 914.581 13.9619C914.499 13.7295 914.387 13.5267 914.246 13.3535C914.105 13.1758 913.929 13.0391 913.72 12.9434C913.515 12.8431 913.271 12.793 912.988 12.793C912.688 12.793 912.432 12.8568 912.223 12.9844C912.013 13.112 911.84 13.2874 911.703 13.5107C911.571 13.734 911.473 13.9938 911.409 14.29C911.345 14.5863 911.313 14.903 911.313 15.2402ZM917.541 15.3838V15.2266C917.541 14.6934 917.618 14.1989 917.773 13.7432C917.928 13.2829 918.152 12.8841 918.443 12.5469C918.74 12.2051 919.1 11.9408 919.523 11.7539C919.952 11.5625 920.435 11.4668 920.973 11.4668C921.515 11.4668 921.998 11.5625 922.422 11.7539C922.85 11.9408 923.213 12.2051 923.509 12.5469C923.805 12.8841 924.031 13.2829 924.186 13.7432C924.34 14.1989 924.418 14.6934 924.418 15.2266V15.3838C924.418 15.917 924.34 16.4115 924.186 16.8672C924.031 17.3229 923.805 17.7217 923.509 18.0635C923.213 18.4007 922.853 18.665 922.429 18.8564C922.005 19.0433 921.524 19.1367 920.986 19.1367C920.444 19.1367 919.959 19.0433 919.53 18.8564C919.106 18.665 918.746 18.4007 918.45 18.0635C918.154 17.7217 917.928 17.3229 917.773 16.8672C917.618 16.4115 917.541 15.917 917.541 15.3838ZM919.188 15.2266V15.3838C919.188 15.7165 919.223 16.0309 919.291 16.3271C919.359 16.6234 919.466 16.8831 919.612 17.1064C919.758 17.3298 919.945 17.5052 920.173 17.6328C920.401 17.7604 920.672 17.8242 920.986 17.8242C921.292 17.8242 921.556 17.7604 921.779 17.6328C922.007 17.5052 922.194 17.3298 922.34 17.1064C922.486 16.8831 922.593 16.6234 922.661 16.3271C922.734 16.0309 922.771 15.7165 922.771 15.3838V15.2266C922.771 14.8984 922.734 14.5885 922.661 14.2969C922.593 14.0007 922.483 13.7386 922.333 13.5107C922.187 13.2829 922 13.1051 921.772 12.9775C921.549 12.8454 921.283 12.7793 920.973 12.7793C920.663 12.7793 920.394 12.8454 920.166 12.9775C919.943 13.1051 919.758 13.2829 919.612 13.5107C919.466 13.7386 919.359 14.0007 919.291 14.2969C919.223 14.5885 919.188 14.8984 919.188 15.2266ZM929.948 16.9971C929.948 16.833 929.907 16.6849 929.825 16.5527C929.743 16.416 929.586 16.293 929.354 16.1836C929.126 16.0742 928.788 15.974 928.342 15.8828C927.95 15.7962 927.59 15.6937 927.262 15.5752C926.938 15.4521 926.66 15.304 926.428 15.1309C926.195 14.9577 926.015 14.7526 925.888 14.5156C925.76 14.2786 925.696 14.0052 925.696 13.6953C925.696 13.3945 925.762 13.1097 925.895 12.8408C926.027 12.5719 926.216 12.335 926.462 12.1299C926.708 11.9248 927.007 11.763 927.357 11.6445C927.713 11.526 928.109 11.4668 928.547 11.4668C929.167 11.4668 929.698 11.5716 930.14 11.7812C930.586 11.9863 930.928 12.2666 931.165 12.6221C931.402 12.973 931.521 13.3695 931.521 13.8115H929.873C929.873 13.6156 929.823 13.4333 929.723 13.2646C929.627 13.0915 929.481 12.9525 929.285 12.8477C929.089 12.7383 928.843 12.6836 928.547 12.6836C928.264 12.6836 928.03 12.7292 927.843 12.8203C927.66 12.9069 927.524 13.0208 927.433 13.1621C927.346 13.3034 927.303 13.4583 927.303 13.627C927.303 13.75 927.326 13.8617 927.371 13.9619C927.421 14.0576 927.503 14.1465 927.617 14.2285C927.731 14.306 927.886 14.3789 928.082 14.4473C928.283 14.5156 928.533 14.5817 928.834 14.6455C929.399 14.764 929.884 14.9167 930.29 15.1035C930.7 15.2858 931.015 15.5228 931.233 15.8145C931.452 16.1016 931.562 16.4661 931.562 16.9082C931.562 17.2363 931.491 17.5371 931.35 17.8105C931.213 18.0794 931.012 18.3141 930.748 18.5146C930.484 18.7106 930.167 18.8633 929.798 18.9727C929.433 19.082 929.023 19.1367 928.567 19.1367C927.897 19.1367 927.33 19.0182 926.865 18.7812C926.4 18.5397 926.047 18.2321 925.806 17.8584C925.569 17.4801 925.45 17.0882 925.45 16.6826H927.043C927.061 16.988 927.146 17.2318 927.296 17.4141C927.451 17.5918 927.642 17.7217 927.87 17.8037C928.103 17.8812 928.342 17.9199 928.588 17.9199C928.884 17.9199 929.132 17.8812 929.333 17.8037C929.534 17.7217 929.686 17.6123 929.791 17.4756C929.896 17.3343 929.948 17.1748 929.948 16.9971Z" fill="white"/>
<path d="M943.026 11.1647L945.431 13.5528C945.549 13.6862 945.608 13.8403 945.608 13.9944C945.608 14.1484 945.549 14.3021 945.431 14.4196L943.026 16.8076C942.855 16.9964 942.596 17.0479 942.372 16.9548C942.148 16.8617 942 16.6423 942 16.3994L942 11.6063C942 11.3631 942.146 11.1437 942.371 11.0505C942.596 10.9573 942.855 10.9919 943.026 11.1647Z" fill="white"/>
</svg>
