<svg width="118" height="40" viewBox="0 0 118 40" fill="none" xmlns="http://www.w3.org/2000/svg">
<path d="M35.7614 19.8749C35.7614 30.6405 28.6505 39.3147 18.844 39.5744H16.8077C14.3024 39.4996 11.8424 38.8313 9.59982 37.6164C7.80288 36.6318 6.18622 35.3001 4.82906 33.6863C4.56072 33.381 4.35286 33.0192 4.21833 32.6233C4.0838 32.2274 4.02544 31.8058 4.04686 31.3844C4.09951 30.4932 4.46315 29.6574 5.06369 29.0471C5.66424 28.4369 6.45651 28.0982 7.27909 28.1C7.67233 28.0915 8.06305 28.1698 8.42755 28.3303C8.79204 28.4908 9.12269 28.73 9.39942 29.0334L9.46407 29.1036C9.69679 29.3773 9.94244 29.6369 10.1946 29.8826C10.9144 30.5774 11.7193 31.1607 12.5864 31.616C14.2847 32.5976 16.1862 33.0909 18.1098 33.0492C20.0334 33.0074 21.9151 32.4319 23.576 31.3774C25.8891 30.0115 27.6771 27.7941 28.6182 25.1244C29.3399 23.0936 29.636 20.9139 29.4851 18.7435C29.3341 16.573 28.7399 14.4663 27.7455 12.5762C27.7357 12.5531 27.7226 12.5318 27.7067 12.5131C27.655 12.4218 27.6033 12.3306 27.5451 12.2464C27.4869 12.1622 27.377 11.9586 27.2865 11.8253C26.7443 10.9617 26.0913 10.1865 25.3472 9.5234C25.2389 9.41296 25.1245 9.30984 25.0046 9.21461C24.9375 9.15059 24.8662 9.09195 24.7913 9.03916C22.8104 7.39136 20.3838 6.49952 17.8883 6.50206C15.3927 6.5046 12.9677 7.40137 10.9897 9.05319L10.7764 9.22864C10.66 9.3269 10.5436 9.42515 10.4337 9.53744C9.69131 10.2025 9.03851 10.9774 8.4944 11.8393L8.25522 12.2183L8.06128 12.5622C6.85439 14.7747 6.22842 17.3037 6.25124 19.8749C6.23912 21.642 6.5307 23.3961 7.11101 25.0472C7.12682 25.0882 7.13979 25.1304 7.1498 25.1735C7.26616 25.4823 7.39545 25.7841 7.52473 26.0788C7.65402 26.3736 7.73806 26.4367 7.73806 26.4367C7.46922 26.3779 7.19714 26.338 6.92354 26.3174C5.85456 26.3042 4.82365 26.7479 4.05333 27.5526C3.27308 28.288 2.78254 29.3204 2.68287 30.437C1.84395 29.1073 1.21678 27.6341 0.82757 26.0788C0.272164 24.0663 -0.00665503 21.9758 0.000120576 19.8749C0.000120576 9.15846 7.03344 0.357917 16.8077 0H18.8698C28.6829 0.252647 35.7873 9.12337 35.7873 19.8609" fill="#F5400E"/>
<path d="M45.1217 12.878C45.1544 13.061 45.2324 13.2307 45.3473 13.3691C45.4623 13.5075 45.6098 13.6092 45.774 13.6634C45.9383 13.7175 46.113 13.722 46.2794 13.6764C46.4458 13.6307 46.5976 13.5367 46.7184 13.4044C48.425 11.6429 50.4613 11.3411 52.4589 11.3411C54.5385 11.3216 56.5721 12.006 58.2769 13.2991C58.4536 13.4399 58.5776 13.6451 58.6263 13.8771C58.675 14.1091 58.645 14.3524 58.5419 14.5624L56.6026 18.5345C56.5396 18.6563 56.4542 18.7626 56.3515 18.8467C56.2488 18.9308 56.1313 18.9909 56.0061 19.0232C55.881 19.0555 55.7511 19.0594 55.6245 19.0344C55.498 19.0095 55.3776 18.9564 55.2709 18.8784C54.1984 18.1359 52.941 17.7707 51.6702 17.8327C48.438 17.8327 45.4643 19.6504 45.4643 24.5349V37.4831C45.4635 37.6145 45.4387 37.7445 45.3914 37.8656C45.3441 37.9866 45.2751 38.0962 45.1886 38.1882C45.1021 38.2802 44.9997 38.3527 44.8872 38.4015C44.7748 38.4503 44.6545 38.4745 44.5334 38.4726H40.2346C40.1135 38.4745 39.9933 38.4503 39.8808 38.4015C39.7684 38.3527 39.6659 38.2802 39.5794 38.1882C39.4929 38.0962 39.424 37.9866 39.3767 37.8656C39.3293 37.7445 39.3046 37.6145 39.3037 37.4831V13.0324C39.3046 12.9006 39.3293 12.7703 39.3765 12.6489C39.4238 12.5275 39.4926 12.4174 39.579 12.3249C39.6655 12.2323 39.7679 12.1592 39.8803 12.1096C39.9928 12.06 40.1132 12.035 40.2346 12.0359H44.2038C44.4241 12.0344 44.6377 12.1185 44.806 12.2729C44.9743 12.4273 45.0863 12.6419 45.1217 12.878Z" fill="#F5400E"/>
<path d="M76.0022 11.4394C73.6512 11.5104 71.3759 12.3574 69.4796 13.8676C69.3471 13.9891 69.1855 14.0671 69.0137 14.0924C68.8419 14.1176 68.667 14.0892 68.5095 14.0104C68.3521 13.9315 68.2186 13.8056 68.1248 13.6473C68.031 13.489 67.9807 13.305 67.9798 13.1167V1.40372C67.9807 1.27226 67.9575 1.14192 67.9118 1.0202C67.866 0.898479 67.7986 0.78779 67.7132 0.694507C67.6279 0.601224 67.5264 0.52719 67.4146 0.47667C67.3028 0.426151 67.1829 0.400143 67.0619 0.400146H62.8535C62.6095 0.401999 62.376 0.50855 62.204 0.696555C62.032 0.884561 61.9355 1.13877 61.9355 1.40372V37.6025C61.9372 37.8662 62.0345 38.1186 62.2063 38.3051C62.3781 38.4916 62.6106 38.5972 62.8535 38.599H66.771C66.996 38.5973 67.2127 38.5066 67.3805 38.3438C67.5483 38.181 67.6557 37.9573 67.6824 37.7147L67.7277 37.2375C67.7494 37.0522 67.8184 36.8771 67.9269 36.732C68.0353 36.5869 68.179 36.4776 68.3416 36.4163C68.5042 36.355 68.6793 36.3442 68.8472 36.3852C69.0152 36.4261 69.1692 36.5171 69.2921 36.648C71.096 38.381 73.4465 39.2911 75.8535 39.1885C83.0355 39.1885 88.4398 34.0233 88.4398 25.314C88.4398 16.1906 83.1325 11.4394 76.0022 11.4394ZM80.8311 30.388C80.2153 31.2073 79.4435 31.8723 78.5687 32.3375C77.6939 32.8027 76.7368 33.0569 75.763 33.0829C75.664 33.0899 75.5646 33.0899 75.4656 33.0829H75.317H75.0454H74.7545C74.6405 33.0929 74.5259 33.0929 74.4119 33.0829C74.2988 33.0692 74.1865 33.0481 74.0758 33.0197L73.7332 32.9425C73.6187 32.9205 73.5062 32.8876 73.397 32.8443L73.0479 32.725L72.8281 32.6478L72.5954 32.5425L72.311 32.4021C72.0883 32.291 71.8723 32.1644 71.6645 32.0232C71.574 31.967 71.4771 31.8968 71.3866 31.8267C71.2887 31.752 71.1958 31.6699 71.1086 31.581L70.9147 31.4126L70.753 31.2652L70.5074 31.0266C69.4532 29.962 68.7187 28.5774 68.3995 27.0533C68.0804 25.5291 68.1913 23.9359 68.718 22.4811C69.2447 21.0264 70.1626 19.7775 71.3523 18.8971C72.542 18.0167 73.9483 17.5455 75.3881 17.5451C76.0777 17.5435 76.7639 17.6523 77.4244 17.8679C79.0276 18.3052 80.4156 19.3926 81.303 20.9067C82.1933 22.326 82.6272 24.0247 82.5372 25.7391C82.4472 27.4535 81.8384 29.0877 80.8053 30.388H80.8311Z" fill="#F5400E"/>
<path d="M99.1191 27.37C98.9755 27.3748 98.8349 27.4156 98.7082 27.4892C98.5815 27.5628 98.4723 27.6673 98.389 27.7944C98.3058 27.9215 98.2507 28.0678 98.2282 28.2219C98.2057 28.3759 98.2164 28.5335 98.2593 28.6824C99.145 31.3071 101.64 33.0897 105.37 33.0897C107.521 33.0889 109.625 32.4112 111.427 31.1387C111.6 30.9921 111.816 30.9185 112.034 30.9314C112.253 30.9443 112.46 31.0429 112.617 31.2089L115.267 34.0161C115.361 34.1137 115.434 34.2314 115.483 34.3617C115.533 34.492 115.556 34.632 115.552 34.7728C115.549 34.9135 115.518 35.0519 115.462 35.179C115.406 35.3061 115.327 35.4191 115.229 35.5109C112.585 37.9602 108.719 39.1392 105.273 39.1392C96.7014 39.1392 91.6074 33.3914 91.6074 24.7453C91.6074 16.5343 96.779 10.6251 104.821 10.6251C112.397 10.6251 117.381 15.257 117.485 24.4786C117.485 25.2171 117.217 25.9258 116.739 26.4513C116.261 26.9767 115.611 27.2766 114.931 27.2858L99.1191 27.37ZM110.277 21.8399C110.423 21.842 110.567 21.8069 110.698 21.7373C110.829 21.6677 110.944 21.5656 111.032 21.4392C111.12 21.3128 111.179 21.1657 111.205 21.0098C111.231 20.8539 111.223 20.6934 111.182 20.5415C110.361 17.9098 108.053 16.5904 104.995 16.5904C102.19 16.5904 99.8237 17.8326 98.5955 20.324C98.5155 20.4786 98.4741 20.6532 98.4755 20.8306C98.4768 21.0079 98.5208 21.1818 98.6031 21.335C98.6854 21.4882 98.8032 21.6154 98.9447 21.7039C99.0863 21.7925 99.2466 21.8393 99.41 21.8399H110.277Z" fill="#F5400E"/>
</svg>
