<svg width="61" height="20" viewBox="0 0 61 20" fill="none" xmlns="http://www.w3.org/2000/svg">
<path d="M19.0829 9.72253C19.0829 14.8089 15.4356 18.9071 10.4056 19.0298H9.36118C8.07616 18.9944 6.81439 18.6787 5.66415 18.1047C4.74246 17.6395 3.91325 17.0103 3.21714 16.2479C3.07951 16.1036 2.97289 15.9327 2.90389 15.7457C2.83489 15.5586 2.80495 15.3594 2.81594 15.1603C2.84294 14.7393 3.02946 14.3444 3.33749 14.056C3.64552 13.7677 4.05189 13.6077 4.4738 13.6086C4.6755 13.6045 4.87591 13.6416 5.06287 13.7174C5.24982 13.7932 5.41942 13.9062 5.56136 14.0496L5.59452 14.0827C5.71388 14.212 5.83988 14.3347 5.9692 14.4508C6.3384 14.779 6.75125 15.0546 7.19601 15.2697C8.06711 15.7335 9.0424 15.9666 10.029 15.9469C11.0157 15.9271 11.9809 15.6552 12.8327 15.157C14.0192 14.5117 14.9363 13.4641 15.419 12.2027C15.7892 11.2433 15.9411 10.2134 15.8636 9.18797C15.7862 8.16251 15.4814 7.16716 14.9714 6.27418C14.9663 6.26326 14.9596 6.25319 14.9515 6.24434C14.925 6.20123 14.8984 6.15813 14.8686 6.11834C14.8388 6.07855 14.7824 5.98239 14.736 5.9194C14.4579 5.51137 14.1229 5.14515 13.7413 4.83184C13.6857 4.77966 13.627 4.73094 13.5655 4.68595C13.5311 4.6557 13.4945 4.62799 13.4561 4.60305C12.4401 3.82453 11.1955 3.40317 9.91544 3.40437C8.63543 3.40557 7.39161 3.82926 6.37703 4.60968L6.26761 4.69258C6.20793 4.739 6.14824 4.78542 6.09188 4.83847C5.71108 5.15269 5.37624 5.51877 5.09716 5.92603L4.97448 6.10508L4.87501 6.26755C4.25597 7.31287 3.9349 8.50772 3.9466 9.72253C3.94039 10.5574 4.08994 11.3862 4.38759 12.1662C4.3957 12.1856 4.40235 12.2055 4.40749 12.2259C4.46717 12.3718 4.53349 12.5144 4.5998 12.6536C4.66612 12.7929 4.70922 12.8227 4.70922 12.8227C4.57132 12.7949 4.43177 12.7761 4.29144 12.7664C3.74314 12.7601 3.21437 12.9697 2.81926 13.3499C2.41905 13.6974 2.16745 14.1852 2.11632 14.7127C1.68603 14.0845 1.36434 13.3884 1.16471 12.6536C0.879832 11.7028 0.736821 10.7151 0.740296 9.72253C0.740296 4.65942 4.34781 0.501499 9.36118 0.332397H10.4189C15.4522 0.451764 19.0962 4.64284 19.0962 9.7159" fill="white"/>
<path d="M23.8845 6.41677C23.9013 6.50319 23.9413 6.5834 24.0003 6.64878C24.0592 6.71415 24.1349 6.76222 24.2191 6.7878C24.3034 6.81337 24.393 6.8155 24.4783 6.79394C24.5637 6.77238 24.6415 6.72796 24.7035 6.66545C25.5789 5.8332 26.6233 5.69062 27.6479 5.69062C28.7146 5.6814 29.7576 6.00475 30.632 6.61571C30.7227 6.68222 30.7863 6.77917 30.8113 6.88878C30.8362 6.9984 30.8209 7.11333 30.768 7.21254L29.7733 9.08924C29.741 9.14677 29.6972 9.19699 29.6445 9.23673C29.5918 9.27647 29.5315 9.30487 29.4674 9.32013C29.4032 9.3354 29.3365 9.3372 29.2716 9.32542C29.2067 9.31365 29.145 9.28855 29.0902 9.25171C28.5401 8.90088 27.8952 8.72835 27.2434 8.75767C25.5855 8.75767 24.0603 9.61644 24.0603 11.9242V18.0417C24.0598 18.1038 24.0471 18.1652 24.0229 18.2224C23.9986 18.2796 23.9632 18.3314 23.9189 18.3748C23.8745 18.4183 23.8219 18.4525 23.7643 18.4756C23.7066 18.4987 23.6449 18.5101 23.5828 18.5092H21.3779C21.3157 18.5101 21.2541 18.4987 21.1964 18.4756C21.1387 18.4525 21.0862 18.4183 21.0418 18.3748C20.9974 18.3314 20.9621 18.2796 20.9378 18.2224C20.9135 18.1652 20.9008 18.1038 20.9004 18.0417V6.48971C20.9008 6.42744 20.9135 6.36587 20.9377 6.30851C20.962 6.25115 20.9973 6.19913 21.0416 6.15541C21.0859 6.11168 21.1385 6.07712 21.1962 6.0537C21.2538 6.03027 21.3156 6.01844 21.3779 6.01888H23.4137C23.5267 6.0182 23.6363 6.05791 23.7226 6.13087C23.8089 6.20382 23.8664 6.30521 23.8845 6.41677Z" fill="white"/>
<path d="M39.7228 5.73712C38.517 5.77065 37.35 6.17084 36.3773 6.88436C36.3093 6.94176 36.2264 6.97859 36.1383 6.99053C36.0502 7.00248 35.9605 6.98904 35.8797 6.95179C35.799 6.91455 35.7305 6.85504 35.6824 6.78025C35.6343 6.70547 35.6085 6.61851 35.608 6.52958V0.995633C35.6085 0.933524 35.5966 0.871942 35.5731 0.814435C35.5497 0.756927 35.5151 0.704631 35.4713 0.660558C35.4275 0.616486 35.3755 0.581508 35.3181 0.557639C35.2608 0.53377 35.1993 0.521483 35.1372 0.521484H32.9786C32.8535 0.52236 32.7337 0.572701 32.6455 0.661526C32.5573 0.750352 32.5078 0.870453 32.5078 0.995633V18.0981C32.5087 18.2227 32.5586 18.342 32.6467 18.4301C32.7348 18.5182 32.854 18.5681 32.9786 18.569H34.988C35.1034 18.5682 35.2146 18.5253 35.3006 18.4484C35.3867 18.3715 35.4418 18.2658 35.4555 18.1512L35.4787 17.9257C35.4899 17.8382 35.5252 17.7554 35.5809 17.6869C35.6365 17.6183 35.7102 17.5667 35.7936 17.5377C35.877 17.5088 35.9668 17.5037 36.0529 17.523C36.1391 17.5424 36.2181 17.5854 36.2811 17.6472C37.2064 18.466 38.412 18.896 39.6466 18.8475C43.3303 18.8475 46.1023 16.4071 46.1023 12.2923C46.1023 7.98187 43.3801 5.73712 39.7228 5.73712ZM42.1997 14.6896C41.8838 15.0767 41.4879 15.3909 41.0392 15.6107C40.5905 15.8304 40.0996 15.9506 39.6001 15.9628C39.5494 15.9661 39.4984 15.9661 39.4476 15.9628H39.3714H39.2321H39.0829C39.0244 15.9676 38.9656 15.9676 38.9072 15.9628C38.8491 15.9564 38.7916 15.9464 38.7347 15.933L38.559 15.8965C38.5003 15.8861 38.4426 15.8706 38.3866 15.8501L38.2075 15.7937L38.0948 15.7572L37.9754 15.7075L37.8296 15.6412C37.7153 15.5887 37.6046 15.5289 37.498 15.4621C37.4516 15.4356 37.4018 15.4025 37.3554 15.3693C37.3052 15.334 37.2576 15.2952 37.2128 15.2533L37.1134 15.1737L37.0305 15.104L36.9045 14.9913C36.3637 14.4883 35.987 13.8342 35.8233 13.1141C35.6596 12.3939 35.7165 11.6412 35.9867 10.9539C36.2568 10.2666 36.7276 9.67652 37.3378 9.26057C37.948 8.84461 38.6693 8.62203 39.4078 8.6218C39.7616 8.62106 40.1135 8.67246 40.4523 8.77432C41.2746 8.98093 41.9865 9.4947 42.4417 10.21C42.8984 10.8806 43.1209 11.6832 43.0747 12.4932C43.0286 13.3031 42.7163 14.0752 42.1864 14.6896H42.1997Z" fill="white"/>
<path d="M51.5804 13.2637C51.5068 13.266 51.4346 13.2853 51.3696 13.3201C51.3047 13.3548 51.2487 13.4042 51.2059 13.4642C51.1632 13.5243 51.135 13.5934 51.1235 13.6662C51.1119 13.739 51.1174 13.8135 51.1394 13.8838C51.5937 15.1239 52.8735 15.9661 54.7867 15.9661C55.8897 15.9657 56.9689 15.6455 57.8935 15.0443C57.982 14.975 58.0926 14.9402 58.2048 14.9463C58.317 14.9524 58.4232 14.999 58.5036 15.0774L59.8631 16.4037C59.911 16.4498 59.9488 16.5055 59.974 16.567C59.9992 16.6286 60.0112 16.6948 60.0093 16.7613C60.0075 16.8277 59.9917 16.8931 59.9631 16.9532C59.9345 17.0132 59.8937 17.0666 59.8432 17.11C58.4871 18.2672 56.5043 18.8242 54.737 18.8242C50.3403 18.8242 47.7275 16.1086 47.7275 12.0237C47.7275 8.14426 50.3801 5.35242 54.5049 5.35242C58.3909 5.35242 60.9473 7.5408 61.0004 11.8977C61.0004 12.2466 60.863 12.5814 60.6178 12.8297C60.3727 13.0779 60.0395 13.2196 59.6907 13.2239L51.5804 13.2637ZM57.3034 10.6509C57.3782 10.652 57.4523 10.6354 57.5196 10.6025C57.5868 10.5696 57.6454 10.5214 57.6906 10.4616C57.7358 10.4019 57.7663 10.3324 57.7797 10.2588C57.793 10.1851 57.7889 10.1093 57.7676 10.0375C57.3465 8.79414 56.1627 8.17078 54.5944 8.17078C53.1554 8.17078 51.9418 8.75767 51.3118 9.93475C51.2708 10.0078 51.2496 10.0903 51.2503 10.1741C51.251 10.2579 51.2735 10.34 51.3157 10.4124C51.358 10.4848 51.4184 10.5449 51.491 10.5867C51.5636 10.6286 51.6458 10.6507 51.7296 10.6509H57.3034Z" fill="white"/>
</svg>
